<svg width="40" height="54" viewBox="0 0 40 54" fill="none" xmlns="http://www.w3.org/2000/svg">
<path d="M0.580573 51.2067V30.27C0.746403 30.37 0.878014 30.4305 0.9912 30.5148C5.60812 33.9551 10.7067 36.3609 16.3344 37.5954C18.0691 37.9771 19.8458 38.1956 21.6015 37.6244C22.8571 37.2164 23.4598 36.2925 23.3072 35.0185C23.215 34.2473 22.8176 33.5971 22.1411 33.2865C20.696 32.6232 19.2272 31.9888 17.719 31.4887C15.142 30.6332 12.5072 29.9541 9.93812 29.0828C7.94026 28.4064 6.08718 27.4035 4.44731 26.0374C1.7914 23.8237 0.367363 20.9861 0.0988765 17.5616C-0.272267 12.8131 0.772726 8.54362 4.3815 5.16384C6.65574 3.03438 9.39062 1.7867 12.3913 1.14444C18.0927 -0.0769098 23.7547 0.120506 29.2007 2.27893C34.71 4.46367 37.6633 8.68575 38.1687 14.5714C38.3029 16.1323 38.1898 17.7143 38.1898 19.3594C33.1622 20.107 28.1689 20.8492 23.3151 21.5705C22.8781 20.286 22.5728 19.0251 22.0305 17.8722C21.2988 16.3113 19.4799 15.4137 17.9085 15.6243C16.6687 15.7928 15.6764 16.3455 15.2473 17.5669C14.8104 18.8145 15.0894 19.9964 15.8975 21.0256C16.7135 22.0653 17.8558 22.6497 19.0772 23.0366C21.4146 23.7763 23.7783 24.437 26.1263 25.145C28.9191 25.99 31.6882 26.8639 34.1388 28.5459C37.4001 30.7885 39.0163 33.8972 39.2374 37.7902C39.3743 40.2224 39.161 42.6151 38.2819 44.9025C37.0263 48.177 34.652 50.3722 31.4829 51.7594C28.0188 53.2756 24.3337 53.6599 20.617 53.6862C13.897 53.7336 7.3059 52.6096 0.746403 51.2935C0.70692 51.2856 0.672701 51.2514 0.583205 51.1988L0.580573 51.2067Z" fill="#061C52"/>
</svg>
