<svg width="201" height="54" viewBox="0 0 201 54" fill="none" xmlns="http://www.w3.org/2000/svg">
<g clip-path="url(#clip0_1603_2334)">
<path d="M0.500122 27C0.500122 12.0883 12.5884 0 27.5001 0H173.5C188.412 0 200.5 12.0883 200.5 27V27C200.5 41.9117 188.412 54 173.5 54H27.5001C12.5884 54 0.500122 41.9117 0.500122 27V27Z" fill="#DBFF28"/>
<path d="M25.9371 17.2H29.9211C31.2811 17.2 32.2731 17.52 32.8971 18.16C33.5211 18.784 33.8331 19.752 33.8331 21.064V21.736C33.8331 22.6 33.6891 23.304 33.4011 23.848C33.1291 24.392 32.7051 24.784 32.1291 25.024V25.072C33.4411 25.52 34.0971 26.688 34.0971 28.576V30.016C34.0971 31.312 33.7531 32.304 33.0651 32.992C32.3931 33.664 31.4011 34 30.0891 34H25.9371V17.2ZM29.6091 24.04C30.1371 24.04 30.5291 23.904 30.7851 23.632C31.0571 23.36 31.1931 22.904 31.1931 22.264V21.328C31.1931 20.72 31.0811 20.28 30.8571 20.008C30.6491 19.736 30.3131 19.6 29.8491 19.6H28.5771V24.04H29.6091ZM30.0891 31.6C30.5531 31.6 30.8971 31.48 31.1211 31.24C31.3451 30.984 31.4571 30.552 31.4571 29.944V28.48C31.4571 27.712 31.3211 27.184 31.0491 26.896C30.7931 26.592 30.3611 26.44 29.7531 26.44H28.5771V31.6H30.0891ZM39.2162 34.24C37.9202 34.24 36.9282 33.872 36.2402 33.136C35.5522 32.4 35.2082 31.36 35.2082 30.016V21.184C35.2082 19.84 35.5522 18.8 36.2402 18.064C36.9282 17.328 37.9202 16.96 39.2162 16.96C40.5122 16.96 41.5042 17.328 42.1922 18.064C42.8802 18.8 43.2242 19.84 43.2242 21.184V30.016C43.2242 31.36 42.8802 32.4 42.1922 33.136C41.5042 33.872 40.5122 34.24 39.2162 34.24ZM39.2162 31.84C40.1282 31.84 40.5842 31.288 40.5842 30.184V21.016C40.5842 19.912 40.1282 19.36 39.2162 19.36C38.3042 19.36 37.8482 19.912 37.8482 21.016V30.184C37.8482 31.288 38.3042 31.84 39.2162 31.84ZM48.5856 34.24C47.2896 34.24 46.2976 33.872 45.6096 33.136C44.9216 32.4 44.5776 31.36 44.5776 30.016V21.184C44.5776 19.84 44.9216 18.8 45.6096 18.064C46.2976 17.328 47.2896 16.96 48.5856 16.96C49.8816 16.96 50.8736 17.328 51.5616 18.064C52.2496 18.8 52.5936 19.84 52.5936 21.184V30.016C52.5936 31.36 52.2496 32.4 51.5616 33.136C50.8736 33.872 49.8816 34.24 48.5856 34.24ZM48.5856 31.84C49.4976 31.84 49.9536 31.288 49.9536 30.184V21.016C49.9536 19.912 49.4976 19.36 48.5856 19.36C47.6736 19.36 47.2176 19.912 47.2176 21.016V30.184C47.2176 31.288 47.6736 31.84 48.5856 31.84ZM54.139 17.2H56.779V24.28L60.139 17.2H62.779L59.635 23.368L62.827 34H60.067L57.835 26.512L56.779 28.648V34H54.139V17.2ZM69.4802 17.2H73.0562L75.7922 34H73.1522L72.6722 30.664V30.712H69.6722L69.1922 34H66.7442L69.4802 17.2ZM72.3602 28.432L71.1842 20.128H71.1362L69.9842 28.432H72.3602ZM80.4368 17.2H87.4208V19.6H83.0768V24.28H86.4848V26.68H83.0768V34H80.4368V17.2ZM88.4468 17.2H92.3588C93.7188 17.2 94.7108 17.52 95.3348 18.16C95.9588 18.784 96.2708 19.752 96.2708 21.064V22.096C96.2708 23.84 95.6948 24.944 94.5428 25.408V25.456C95.1828 25.648 95.6308 26.04 95.8868 26.632C96.1588 27.224 96.2948 28.016 96.2948 29.008V31.96C96.2948 32.44 96.3108 32.832 96.3428 33.136C96.3748 33.424 96.4548 33.712 96.5828 34H93.8948C93.7988 33.728 93.7348 33.472 93.7028 33.232C93.6708 32.992 93.6548 32.56 93.6548 31.936V28.864C93.6548 28.096 93.5268 27.56 93.2708 27.256C93.0308 26.952 92.6068 26.8 91.9988 26.8H91.0868V34H88.4468V17.2ZM92.0468 24.4C92.5748 24.4 92.9668 24.264 93.2228 23.992C93.4948 23.72 93.6308 23.264 93.6308 22.624V21.328C93.6308 20.72 93.5188 20.28 93.2948 20.008C93.0868 19.736 92.7508 19.6 92.2868 19.6H91.0868V24.4H92.0468ZM97.8865 17.2H105.086V19.6H100.526V24.04H104.15V26.44H100.526V31.6H105.086V34H97.8865V17.2ZM106.365 17.2H113.565V19.6H109.005V24.04H112.629V26.44H109.005V31.6H113.565V34H106.365V17.2ZM121.88 34.24C120.6 34.24 119.632 33.88 118.976 33.16C118.32 32.424 117.992 31.376 117.992 30.016V29.056H120.488V30.208C120.488 31.296 120.944 31.84 121.856 31.84C122.304 31.84 122.64 31.712 122.864 31.456C123.104 31.184 123.224 30.752 123.224 30.16C123.224 29.456 123.064 28.84 122.744 28.312C122.424 27.768 121.832 27.12 120.968 26.368C119.88 25.408 119.12 24.544 118.688 23.776C118.256 22.992 118.04 22.112 118.04 21.136C118.04 19.808 118.376 18.784 119.048 18.064C119.72 17.328 120.696 16.96 121.976 16.96C123.24 16.96 124.192 17.328 124.832 18.064C125.488 18.784 125.816 19.824 125.816 21.184V21.88H123.32V21.016C123.32 20.44 123.208 20.024 122.984 19.768C122.76 19.496 122.432 19.36 122 19.36C121.12 19.36 120.68 19.896 120.68 20.968C120.68 21.576 120.84 22.144 121.16 22.672C121.496 23.2 122.096 23.84 122.96 24.592C124.064 25.552 124.824 26.424 125.24 27.208C125.656 27.992 125.864 28.912 125.864 29.968C125.864 31.344 125.52 32.4 124.832 33.136C124.16 33.872 123.176 34.24 121.88 34.24ZM127.137 17.2H134.337V19.6H129.777V24.04H133.401V26.44H129.777V31.6H134.337V34H127.137V17.2ZM139.095 34.24C137.815 34.24 136.847 33.88 136.191 33.16C135.535 32.424 135.207 31.376 135.207 30.016V29.056H137.703V30.208C137.703 31.296 138.159 31.84 139.071 31.84C139.519 31.84 139.855 31.712 140.079 31.456C140.319 31.184 140.439 30.752 140.439 30.16C140.439 29.456 140.279 28.84 139.959 28.312C139.639 27.768 139.047 27.12 138.183 26.368C137.095 25.408 136.335 24.544 135.903 23.776C135.471 22.992 135.255 22.112 135.255 21.136C135.255 19.808 135.591 18.784 136.263 18.064C136.935 17.328 137.911 16.96 139.191 16.96C140.455 16.96 141.407 17.328 142.047 18.064C142.703 18.784 143.031 19.824 143.031 21.184V21.88H140.535V21.016C140.535 20.44 140.423 20.024 140.199 19.768C139.975 19.496 139.647 19.36 139.215 19.36C138.335 19.36 137.895 19.896 137.895 20.968C137.895 21.576 138.055 22.144 138.375 22.672C138.711 23.2 139.311 23.84 140.175 24.592C141.279 25.552 142.039 26.424 142.455 27.208C142.871 27.992 143.079 28.912 143.079 29.968C143.079 31.344 142.735 32.4 142.047 33.136C141.375 33.872 140.391 34.24 139.095 34.24ZM147.785 34.24C146.505 34.24 145.537 33.88 144.881 33.16C144.225 32.424 143.897 31.376 143.897 30.016V29.056H146.393V30.208C146.393 31.296 146.849 31.84 147.761 31.84C148.209 31.84 148.545 31.712 148.769 31.456C149.009 31.184 149.129 30.752 149.129 30.16C149.129 29.456 148.969 28.84 148.649 28.312C148.329 27.768 147.737 27.12 146.873 26.368C145.785 25.408 145.025 24.544 144.593 23.776C144.161 22.992 143.945 22.112 143.945 21.136C143.945 19.808 144.281 18.784 144.953 18.064C145.625 17.328 146.601 16.96 147.881 16.96C149.145 16.96 150.097 17.328 150.737 18.064C151.393 18.784 151.721 19.824 151.721 21.184V21.88H149.225V21.016C149.225 20.44 149.113 20.024 148.889 19.768C148.665 19.496 148.337 19.36 147.905 19.36C147.025 19.36 146.585 19.896 146.585 20.968C146.585 21.576 146.745 22.144 147.065 22.672C147.401 23.2 148.001 23.84 148.865 24.592C149.969 25.552 150.729 26.424 151.145 27.208C151.561 27.992 151.769 28.912 151.769 29.968C151.769 31.344 151.425 32.4 150.737 33.136C150.065 33.872 149.081 34.24 147.785 34.24ZM153.042 17.2H155.682V34H153.042V17.2ZM161.236 34.24C159.94 34.24 158.948 33.872 158.26 33.136C157.572 32.4 157.228 31.36 157.228 30.016V21.184C157.228 19.84 157.572 18.8 158.26 18.064C158.948 17.328 159.94 16.96 161.236 16.96C162.532 16.96 163.524 17.328 164.212 18.064C164.9 18.8 165.244 19.84 165.244 21.184V30.016C165.244 31.36 164.9 32.4 164.212 33.136C163.524 33.872 162.532 34.24 161.236 34.24ZM161.236 31.84C162.148 31.84 162.604 31.288 162.604 30.184V21.016C162.604 19.912 162.148 19.36 161.236 19.36C160.324 19.36 159.868 19.912 159.868 21.016V30.184C159.868 31.288 160.324 31.84 161.236 31.84ZM166.789 17.2H170.101L172.669 27.256H172.717V17.2H175.069V34H172.357L169.189 21.736H169.141V34H166.789V17.2Z" fill="#061C52"/>
</g>
<defs>
<clipPath id="clip0_1603_2334">
<rect width="200" height="54" fill="white" transform="translate(0.500122)"/>
</clipPath>
</defs>
</svg>
