<svg width="206" height="61" viewBox="0 0 206 61" fill="none" xmlns="http://www.w3.org/2000/svg">
<path d="M176 1.5H30.0001C13.9839 1.5 1.00012 14.4837 1.00012 30.5C1.00012 46.5163 13.9839 59.5 30.0001 59.5H176C192.016 59.5 205 46.5163 205 30.5C205 14.4837 192.016 1.5 176 1.5Z" stroke="#9CC7D4" stroke-width="2"/>
<path d="M3.00012 30.5C3.00012 15.5883 15.0884 3.5 30.0001 3.5H176C190.912 3.5 203 15.5883 203 30.5V30.5C203 45.4117 190.912 57.5 176 57.5H30.0001C15.0884 57.5 3.00012 45.4117 3.00012 30.5V30.5Z" fill="#061C52"/>
<path d="M28.4371 20.7H32.4211C33.7811 20.7 34.7731 21.02 35.3971 21.66C36.0211 22.284 36.3331 23.252 36.3331 24.564V25.236C36.3331 26.1 36.1891 26.804 35.9011 27.348C35.6291 27.892 35.2051 28.284 34.6291 28.524V28.572C35.9411 29.02 36.5971 30.188 36.5971 32.076V33.516C36.5971 34.812 36.2531 35.804 35.5651 36.492C34.8931 37.164 33.9011 37.5 32.5891 37.5H28.4371V20.7ZM32.1091 27.54C32.6371 27.54 33.0291 27.404 33.2851 27.132C33.5571 26.86 33.6931 26.404 33.6931 25.764V24.828C33.6931 24.22 33.5811 23.78 33.3571 23.508C33.1491 23.236 32.8131 23.1 32.3491 23.1H31.0771V27.54H32.1091ZM32.5891 35.1C33.0531 35.1 33.3971 34.98 33.6211 34.74C33.8451 34.484 33.9571 34.052 33.9571 33.444V31.98C33.9571 31.212 33.8211 30.684 33.5491 30.396C33.2931 30.092 32.8611 29.94 32.2531 29.94H31.0771V35.1H32.5891ZM41.7162 37.74C40.4202 37.74 39.4282 37.372 38.7402 36.636C38.0522 35.9 37.7082 34.86 37.7082 33.516V24.684C37.7082 23.34 38.0522 22.3 38.7402 21.564C39.4282 20.828 40.4202 20.46 41.7162 20.46C43.0122 20.46 44.0042 20.828 44.6922 21.564C45.3802 22.3 45.7242 23.34 45.7242 24.684V33.516C45.7242 34.86 45.3802 35.9 44.6922 36.636C44.0042 37.372 43.0122 37.74 41.7162 37.74ZM41.7162 35.34C42.6282 35.34 43.0842 34.788 43.0842 33.684V24.516C43.0842 23.412 42.6282 22.86 41.7162 22.86C40.8042 22.86 40.3482 23.412 40.3482 24.516V33.684C40.3482 34.788 40.8042 35.34 41.7162 35.34ZM51.0856 37.74C49.7896 37.74 48.7976 37.372 48.1096 36.636C47.4216 35.9 47.0776 34.86 47.0776 33.516V24.684C47.0776 23.34 47.4216 22.3 48.1096 21.564C48.7976 20.828 49.7896 20.46 51.0856 20.46C52.3816 20.46 53.3736 20.828 54.0616 21.564C54.7496 22.3 55.0936 23.34 55.0936 24.684V33.516C55.0936 34.86 54.7496 35.9 54.0616 36.636C53.3736 37.372 52.3816 37.74 51.0856 37.74ZM51.0856 35.34C51.9976 35.34 52.4536 34.788 52.4536 33.684V24.516C52.4536 23.412 51.9976 22.86 51.0856 22.86C50.1736 22.86 49.7176 23.412 49.7176 24.516V33.684C49.7176 34.788 50.1736 35.34 51.0856 35.34ZM56.639 20.7H59.279V27.78L62.639 20.7H65.279L62.135 26.868L65.327 37.5H62.567L60.335 30.012L59.279 32.148V37.5H56.639V20.7ZM71.9802 20.7H75.5562L78.2922 37.5H75.6522L75.1722 34.164V34.212H72.1722L71.6922 37.5H69.2442L71.9802 20.7ZM74.8602 31.932L73.6842 23.628H73.6362L72.4842 31.932H74.8602ZM82.9368 20.7H89.9208V23.1H85.5768V27.78H88.9848V30.18H85.5768V37.5H82.9368V20.7ZM90.9468 20.7H94.8588C96.2188 20.7 97.2108 21.02 97.8348 21.66C98.4588 22.284 98.7708 23.252 98.7708 24.564V25.596C98.7708 27.34 98.1948 28.444 97.0428 28.908V28.956C97.6828 29.148 98.1308 29.54 98.3868 30.132C98.6588 30.724 98.7948 31.516 98.7948 32.508V35.46C98.7948 35.94 98.8108 36.332 98.8428 36.636C98.8748 36.924 98.9548 37.212 99.0828 37.5H96.3948C96.2988 37.228 96.2348 36.972 96.2028 36.732C96.1708 36.492 96.1548 36.06 96.1548 35.436V32.364C96.1548 31.596 96.0268 31.06 95.7708 30.756C95.5308 30.452 95.1068 30.3 94.4988 30.3H93.5868V37.5H90.9468V20.7ZM94.5468 27.9C95.0748 27.9 95.4668 27.764 95.7228 27.492C95.9948 27.22 96.1308 26.764 96.1308 26.124V24.828C96.1308 24.22 96.0188 23.78 95.7948 23.508C95.5868 23.236 95.2508 23.1 94.7868 23.1H93.5868V27.9H94.5468ZM100.386 20.7H107.586V23.1H103.026V27.54H106.65V29.94H103.026V35.1H107.586V37.5H100.386V20.7ZM108.865 20.7H116.065V23.1H111.505V27.54H115.129V29.94H111.505V35.1H116.065V37.5H108.865V20.7ZM124.38 37.74C123.1 37.74 122.132 37.38 121.476 36.66C120.82 35.924 120.492 34.876 120.492 33.516V32.556H122.988V33.708C122.988 34.796 123.444 35.34 124.356 35.34C124.804 35.34 125.14 35.212 125.364 34.956C125.604 34.684 125.724 34.252 125.724 33.66C125.724 32.956 125.564 32.34 125.244 31.812C124.924 31.268 124.332 30.62 123.468 29.868C122.38 28.908 121.62 28.044 121.188 27.276C120.756 26.492 120.54 25.612 120.54 24.636C120.54 23.308 120.876 22.284 121.548 21.564C122.22 20.828 123.196 20.46 124.476 20.46C125.74 20.46 126.692 20.828 127.332 21.564C127.988 22.284 128.316 23.324 128.316 24.684V25.38H125.82V24.516C125.82 23.94 125.708 23.524 125.484 23.268C125.26 22.996 124.932 22.86 124.5 22.86C123.62 22.86 123.18 23.396 123.18 24.468C123.18 25.076 123.34 25.644 123.66 26.172C123.996 26.7 124.596 27.34 125.46 28.092C126.564 29.052 127.324 29.924 127.74 30.708C128.156 31.492 128.364 32.412 128.364 33.468C128.364 34.844 128.02 35.9 127.332 36.636C126.66 37.372 125.676 37.74 124.38 37.74ZM129.637 20.7H136.837V23.1H132.277V27.54H135.901V29.94H132.277V35.1H136.837V37.5H129.637V20.7ZM141.595 37.74C140.315 37.74 139.347 37.38 138.691 36.66C138.035 35.924 137.707 34.876 137.707 33.516V32.556H140.203V33.708C140.203 34.796 140.659 35.34 141.571 35.34C142.019 35.34 142.355 35.212 142.579 34.956C142.819 34.684 142.939 34.252 142.939 33.66C142.939 32.956 142.779 32.34 142.459 31.812C142.139 31.268 141.547 30.62 140.683 29.868C139.595 28.908 138.835 28.044 138.403 27.276C137.971 26.492 137.755 25.612 137.755 24.636C137.755 23.308 138.091 22.284 138.763 21.564C139.435 20.828 140.411 20.46 141.691 20.46C142.955 20.46 143.907 20.828 144.547 21.564C145.203 22.284 145.531 23.324 145.531 24.684V25.38H143.035V24.516C143.035 23.94 142.923 23.524 142.699 23.268C142.475 22.996 142.147 22.86 141.715 22.86C140.835 22.86 140.395 23.396 140.395 24.468C140.395 25.076 140.555 25.644 140.875 26.172C141.211 26.7 141.811 27.34 142.675 28.092C143.779 29.052 144.539 29.924 144.955 30.708C145.371 31.492 145.579 32.412 145.579 33.468C145.579 34.844 145.235 35.9 144.547 36.636C143.875 37.372 142.891 37.74 141.595 37.74ZM150.285 37.74C149.005 37.74 148.037 37.38 147.381 36.66C146.725 35.924 146.397 34.876 146.397 33.516V32.556H148.893V33.708C148.893 34.796 149.349 35.34 150.261 35.34C150.709 35.34 151.045 35.212 151.269 34.956C151.509 34.684 151.629 34.252 151.629 33.66C151.629 32.956 151.469 32.34 151.149 31.812C150.829 31.268 150.237 30.62 149.373 29.868C148.285 28.908 147.525 28.044 147.093 27.276C146.661 26.492 146.445 25.612 146.445 24.636C146.445 23.308 146.781 22.284 147.453 21.564C148.125 20.828 149.101 20.46 150.381 20.46C151.645 20.46 152.597 20.828 153.237 21.564C153.893 22.284 154.221 23.324 154.221 24.684V25.38H151.725V24.516C151.725 23.94 151.613 23.524 151.389 23.268C151.165 22.996 150.837 22.86 150.405 22.86C149.525 22.86 149.085 23.396 149.085 24.468C149.085 25.076 149.245 25.644 149.565 26.172C149.901 26.7 150.501 27.34 151.365 28.092C152.469 29.052 153.229 29.924 153.645 30.708C154.061 31.492 154.269 32.412 154.269 33.468C154.269 34.844 153.925 35.9 153.237 36.636C152.565 37.372 151.581 37.74 150.285 37.74ZM155.542 20.7H158.182V37.5H155.542V20.7ZM163.736 37.74C162.44 37.74 161.448 37.372 160.76 36.636C160.072 35.9 159.728 34.86 159.728 33.516V24.684C159.728 23.34 160.072 22.3 160.76 21.564C161.448 20.828 162.44 20.46 163.736 20.46C165.032 20.46 166.024 20.828 166.712 21.564C167.4 22.3 167.744 23.34 167.744 24.684V33.516C167.744 34.86 167.4 35.9 166.712 36.636C166.024 37.372 165.032 37.74 163.736 37.74ZM163.736 35.34C164.648 35.34 165.104 34.788 165.104 33.684V24.516C165.104 23.412 164.648 22.86 163.736 22.86C162.824 22.86 162.368 23.412 162.368 24.516V33.684C162.368 34.788 162.824 35.34 163.736 35.34ZM169.289 20.7H172.601L175.169 30.756H175.217V20.7H177.569V37.5H174.857L171.689 25.236H171.641V37.5H169.289V20.7Z" fill="#F8F7F3"/>
</svg>
