<svg width="200" height="54" viewBox="0 0 200 54" fill="none" xmlns="http://www.w3.org/2000/svg">
<g clip-path="url(#clip0_1603_2342)">
<path d="M0.00012207 27C0.00012207 12.0883 12.0884 0 27.0001 0H173C187.912 0 200 12.0883 200 27V27C200 41.9117 187.912 54 173 54H27.0001C12.0884 54 0.00012207 41.9117 0.00012207 27V27Z" fill="#D4D4D4"/>
<path d="M25.4371 17.2H29.4211C30.7811 17.2 31.7731 17.52 32.3971 18.16C33.0211 18.784 33.3331 19.752 33.3331 21.064V21.736C33.3331 22.6 33.1891 23.304 32.9011 23.848C32.6291 24.392 32.2051 24.784 31.6291 25.024V25.072C32.9411 25.52 33.5971 26.688 33.5971 28.576V30.016C33.5971 31.312 33.2531 32.304 32.5651 32.992C31.8931 33.664 30.9011 34 29.5891 34H25.4371V17.2ZM29.1091 24.04C29.6371 24.04 30.0291 23.904 30.2851 23.632C30.5571 23.36 30.6931 22.904 30.6931 22.264V21.328C30.6931 20.72 30.5811 20.28 30.3571 20.008C30.1491 19.736 29.8131 19.6 29.3491 19.6H28.0771V24.04H29.1091ZM29.5891 31.6C30.0531 31.6 30.3971 31.48 30.6211 31.24C30.8451 30.984 30.9571 30.552 30.9571 29.944V28.48C30.9571 27.712 30.8211 27.184 30.5491 26.896C30.2931 26.592 29.8611 26.44 29.2531 26.44H28.0771V31.6H29.5891ZM38.7162 34.24C37.4202 34.24 36.4282 33.872 35.7402 33.136C35.0522 32.4 34.7082 31.36 34.7082 30.016V21.184C34.7082 19.84 35.0522 18.8 35.7402 18.064C36.4282 17.328 37.4202 16.96 38.7162 16.96C40.0122 16.96 41.0042 17.328 41.6922 18.064C42.3802 18.8 42.7242 19.84 42.7242 21.184V30.016C42.7242 31.36 42.3802 32.4 41.6922 33.136C41.0042 33.872 40.0122 34.24 38.7162 34.24ZM38.7162 31.84C39.6282 31.84 40.0842 31.288 40.0842 30.184V21.016C40.0842 19.912 39.6282 19.36 38.7162 19.36C37.8042 19.36 37.3482 19.912 37.3482 21.016V30.184C37.3482 31.288 37.8042 31.84 38.7162 31.84ZM48.0856 34.24C46.7896 34.24 45.7976 33.872 45.1096 33.136C44.4216 32.4 44.0776 31.36 44.0776 30.016V21.184C44.0776 19.84 44.4216 18.8 45.1096 18.064C45.7976 17.328 46.7896 16.96 48.0856 16.96C49.3816 16.96 50.3736 17.328 51.0616 18.064C51.7496 18.8 52.0936 19.84 52.0936 21.184V30.016C52.0936 31.36 51.7496 32.4 51.0616 33.136C50.3736 33.872 49.3816 34.24 48.0856 34.24ZM48.0856 31.84C48.9976 31.84 49.4536 31.288 49.4536 30.184V21.016C49.4536 19.912 48.9976 19.36 48.0856 19.36C47.1736 19.36 46.7176 19.912 46.7176 21.016V30.184C46.7176 31.288 47.1736 31.84 48.0856 31.84ZM53.639 17.2H56.279V24.28L59.639 17.2H62.279L59.135 23.368L62.327 34H59.567L57.335 26.512L56.279 28.648V34H53.639V17.2ZM68.9802 17.2H72.5562L75.2922 34H72.6522L72.1722 30.664V30.712H69.1722L68.6922 34H66.2442L68.9802 17.2ZM71.8602 28.432L70.6842 20.128H70.6362L69.4842 28.432H71.8602ZM79.9368 17.2H86.9208V19.6H82.5768V24.28H85.9848V26.68H82.5768V34H79.9368V17.2ZM87.9468 17.2H91.8588C93.2188 17.2 94.2108 17.52 94.8348 18.16C95.4588 18.784 95.7708 19.752 95.7708 21.064V22.096C95.7708 23.84 95.1948 24.944 94.0428 25.408V25.456C94.6828 25.648 95.1308 26.04 95.3868 26.632C95.6588 27.224 95.7948 28.016 95.7948 29.008V31.96C95.7948 32.44 95.8108 32.832 95.8428 33.136C95.8748 33.424 95.9548 33.712 96.0828 34H93.3948C93.2988 33.728 93.2348 33.472 93.2028 33.232C93.1708 32.992 93.1548 32.56 93.1548 31.936V28.864C93.1548 28.096 93.0268 27.56 92.7708 27.256C92.5308 26.952 92.1068 26.8 91.4988 26.8H90.5868V34H87.9468V17.2ZM91.5468 24.4C92.0748 24.4 92.4668 24.264 92.7228 23.992C92.9948 23.72 93.1308 23.264 93.1308 22.624V21.328C93.1308 20.72 93.0188 20.28 92.7948 20.008C92.5868 19.736 92.2508 19.6 91.7868 19.6H90.5868V24.4H91.5468ZM97.3865 17.2H104.586V19.6H100.026V24.04H103.65V26.44H100.026V31.6H104.586V34H97.3865V17.2ZM105.865 17.2H113.065V19.6H108.505V24.04H112.129V26.44H108.505V31.6H113.065V34H105.865V17.2ZM121.38 34.24C120.1 34.24 119.132 33.88 118.476 33.16C117.82 32.424 117.492 31.376 117.492 30.016V29.056H119.988V30.208C119.988 31.296 120.444 31.84 121.356 31.84C121.804 31.84 122.14 31.712 122.364 31.456C122.604 31.184 122.724 30.752 122.724 30.16C122.724 29.456 122.564 28.84 122.244 28.312C121.924 27.768 121.332 27.12 120.468 26.368C119.38 25.408 118.62 24.544 118.188 23.776C117.756 22.992 117.54 22.112 117.54 21.136C117.54 19.808 117.876 18.784 118.548 18.064C119.22 17.328 120.196 16.96 121.476 16.96C122.74 16.96 123.692 17.328 124.332 18.064C124.988 18.784 125.316 19.824 125.316 21.184V21.88H122.82V21.016C122.82 20.44 122.708 20.024 122.484 19.768C122.26 19.496 121.932 19.36 121.5 19.36C120.62 19.36 120.18 19.896 120.18 20.968C120.18 21.576 120.34 22.144 120.66 22.672C120.996 23.2 121.596 23.84 122.46 24.592C123.564 25.552 124.324 26.424 124.74 27.208C125.156 27.992 125.364 28.912 125.364 29.968C125.364 31.344 125.02 32.4 124.332 33.136C123.66 33.872 122.676 34.24 121.38 34.24ZM126.637 17.2H133.837V19.6H129.277V24.04H132.901V26.44H129.277V31.6H133.837V34H126.637V17.2ZM138.595 34.24C137.315 34.24 136.347 33.88 135.691 33.16C135.035 32.424 134.707 31.376 134.707 30.016V29.056H137.203V30.208C137.203 31.296 137.659 31.84 138.571 31.84C139.019 31.84 139.355 31.712 139.579 31.456C139.819 31.184 139.939 30.752 139.939 30.16C139.939 29.456 139.779 28.84 139.459 28.312C139.139 27.768 138.547 27.12 137.683 26.368C136.595 25.408 135.835 24.544 135.403 23.776C134.971 22.992 134.755 22.112 134.755 21.136C134.755 19.808 135.091 18.784 135.763 18.064C136.435 17.328 137.411 16.96 138.691 16.96C139.955 16.96 140.907 17.328 141.547 18.064C142.203 18.784 142.531 19.824 142.531 21.184V21.88H140.035V21.016C140.035 20.44 139.923 20.024 139.699 19.768C139.475 19.496 139.147 19.36 138.715 19.36C137.835 19.36 137.395 19.896 137.395 20.968C137.395 21.576 137.555 22.144 137.875 22.672C138.211 23.2 138.811 23.84 139.675 24.592C140.779 25.552 141.539 26.424 141.955 27.208C142.371 27.992 142.579 28.912 142.579 29.968C142.579 31.344 142.235 32.4 141.547 33.136C140.875 33.872 139.891 34.24 138.595 34.24ZM147.285 34.24C146.005 34.24 145.037 33.88 144.381 33.16C143.725 32.424 143.397 31.376 143.397 30.016V29.056H145.893V30.208C145.893 31.296 146.349 31.84 147.261 31.84C147.709 31.84 148.045 31.712 148.269 31.456C148.509 31.184 148.629 30.752 148.629 30.16C148.629 29.456 148.469 28.84 148.149 28.312C147.829 27.768 147.237 27.12 146.373 26.368C145.285 25.408 144.525 24.544 144.093 23.776C143.661 22.992 143.445 22.112 143.445 21.136C143.445 19.808 143.781 18.784 144.453 18.064C145.125 17.328 146.101 16.96 147.381 16.96C148.645 16.96 149.597 17.328 150.237 18.064C150.893 18.784 151.221 19.824 151.221 21.184V21.88H148.725V21.016C148.725 20.44 148.613 20.024 148.389 19.768C148.165 19.496 147.837 19.36 147.405 19.36C146.525 19.36 146.085 19.896 146.085 20.968C146.085 21.576 146.245 22.144 146.565 22.672C146.901 23.2 147.501 23.84 148.365 24.592C149.469 25.552 150.229 26.424 150.645 27.208C151.061 27.992 151.269 28.912 151.269 29.968C151.269 31.344 150.925 32.4 150.237 33.136C149.565 33.872 148.581 34.24 147.285 34.24ZM152.542 17.2H155.182V34H152.542V17.2ZM160.736 34.24C159.44 34.24 158.448 33.872 157.76 33.136C157.072 32.4 156.728 31.36 156.728 30.016V21.184C156.728 19.84 157.072 18.8 157.76 18.064C158.448 17.328 159.44 16.96 160.736 16.96C162.032 16.96 163.024 17.328 163.712 18.064C164.4 18.8 164.744 19.84 164.744 21.184V30.016C164.744 31.36 164.4 32.4 163.712 33.136C163.024 33.872 162.032 34.24 160.736 34.24ZM160.736 31.84C161.648 31.84 162.104 31.288 162.104 30.184V21.016C162.104 19.912 161.648 19.36 160.736 19.36C159.824 19.36 159.368 19.912 159.368 21.016V30.184C159.368 31.288 159.824 31.84 160.736 31.84ZM166.289 17.2H169.601L172.169 27.256H172.217V17.2H174.569V34H171.857L168.689 21.736H168.641V34H166.289V17.2Z" fill="#525252"/>
</g>
<defs>
<clipPath id="clip0_1603_2342">
<path d="M0.00012207 27C0.00012207 12.0883 12.0884 0 27.0001 0H173C187.912 0 200 12.0883 200 27V27C200 41.9117 187.912 54 173 54H27.0001C12.0884 54 0.00012207 41.9117 0.00012207 27V27Z" fill="white"/>
</clipPath>
</defs>
</svg>
