<svg width="265" height="68" viewBox="0 0 265 68" fill="none" xmlns="http://www.w3.org/2000/svg">
<g clip-path="url(#clip0_590_2732)">
<g filter="url(#filter0_b_590_2732)">
<rect x="0.715579" y="0.715579" width="262.826" height="66.5688" rx="33.2844" stroke="#061C52" stroke-width="1.43116"/>
<circle cx="228.632" cy="33.999" r="11.8584" fill="#DBFF28"/>
<path d="M36.944 26.2C39.68 26.2 40.856 27.472 40.856 30.064V30.664C40.856 32.392 40.328 33.472 39.152 34.024V34.072C40.568 34.624 41.12 35.872 41.12 37.648V39.016C41.12 41.608 39.752 43 37.112 43H32.96V26.2H36.944ZM36.776 35.44H35.6V40.6H37.112C38 40.6 38.48 40.192 38.48 38.944V37.48C38.48 35.92 37.976 35.44 36.776 35.44ZM36.872 28.6H35.6V33.04H36.632C37.616 33.04 38.216 32.608 38.216 31.264V30.328C38.216 29.128 37.808 28.6 36.872 28.6ZM44.894 30.064V39.136C44.894 40.336 45.422 40.792 46.262 40.792C47.102 40.792 47.63 40.336 47.63 39.136V30.064C47.63 28.864 47.102 28.408 46.262 28.408C45.422 28.408 44.894 28.864 44.894 30.064ZM42.254 38.968V30.232C42.254 27.544 43.67 26.008 46.262 26.008C48.854 26.008 50.27 27.544 50.27 30.232V38.968C50.27 41.656 48.854 43.192 46.262 43.192C43.67 43.192 42.254 41.656 42.254 38.968ZM54.1696 30.064V39.136C54.1696 40.336 54.6976 40.792 55.5376 40.792C56.3776 40.792 56.9056 40.336 56.9056 39.136V30.064C56.9056 28.864 56.3776 28.408 55.5376 28.408C54.6976 28.408 54.1696 28.864 54.1696 30.064ZM51.5296 38.968V30.232C51.5296 27.544 52.9456 26.008 55.5376 26.008C58.1296 26.008 59.5456 27.544 59.5456 30.232V38.968C59.5456 41.656 58.1296 43.192 55.5376 43.192C52.9456 43.192 51.5296 41.656 51.5296 38.968ZM67.0453 43L64.4773 36.304L63.6613 37.84V43H61.0213V26.2H63.6613V33.472H63.7093L67.1173 26.2H69.7573L66.0853 33.688L69.7573 43H67.0453ZM80.0613 26.2L82.7493 43H80.0853L79.6293 39.952H76.3893L75.9333 43H73.5093L76.1973 26.2H80.0613ZM77.9733 29.176L76.7253 37.672H79.2693L78.0213 29.176H77.9733ZM89.8653 28.6V33.664H93.2733V36.064H89.8653V43H87.2253V26.2H94.2093V28.6H89.8653ZM103.443 43H100.755C100.611 42.568 100.515 42.304 100.515 40.936V38.296C100.515 36.736 99.9873 36.16 98.7873 36.16H97.8753V43H95.2353V26.2H99.2193C101.955 26.2 103.131 27.472 103.131 30.064V31.384C103.131 33.112 102.579 34.216 101.403 34.768V34.816C102.723 35.368 103.155 36.616 103.155 38.368V40.96C103.155 41.776 103.179 42.376 103.443 43ZM99.1473 28.6H97.8753V33.76H98.9073C99.8913 33.76 100.491 33.328 100.491 31.984V30.328C100.491 29.128 100.083 28.6 99.1473 28.6ZM107.292 28.6V33.28H110.916V35.68H107.292V40.6H111.852V43H104.652V26.2H111.852V28.6H107.292ZM115.887 28.6V33.28H119.511V35.68H115.887V40.6H120.447V43H113.247V26.2H120.447V28.6H115.887ZM124.994 30.232C124.994 27.544 126.314 26.008 128.882 26.008C131.45 26.008 132.77 27.544 132.77 30.232V30.76H130.274V30.064C130.274 28.864 129.794 28.408 128.954 28.408C128.114 28.408 127.634 28.864 127.634 30.064C127.634 31.288 128.162 32.2 129.89 33.712C132.098 35.656 132.794 37.048 132.794 38.968C132.794 41.656 131.45 43.192 128.858 43.192C126.266 43.192 124.922 41.656 124.922 38.968V37.936H127.418V39.136C127.418 40.336 127.946 40.768 128.786 40.768C129.626 40.768 130.154 40.336 130.154 39.136C130.154 37.912 129.626 37 127.898 35.488C125.69 33.544 124.994 32.152 124.994 30.232ZM136.707 28.6V33.28H140.331V35.68H136.707V40.6H141.267V43H134.067V26.2H141.267V28.6H136.707ZM142.326 30.232C142.326 27.544 143.646 26.008 146.214 26.008C148.782 26.008 150.102 27.544 150.102 30.232V30.76H147.606V30.064C147.606 28.864 147.126 28.408 146.286 28.408C145.446 28.408 144.966 28.864 144.966 30.064C144.966 31.288 145.494 32.2 147.222 33.712C149.431 35.656 150.126 37.048 150.126 38.968C150.126 41.656 148.782 43.192 146.19 43.192C143.598 43.192 142.254 41.656 142.254 38.968V37.936H144.75V39.136C144.75 40.336 145.278 40.768 146.118 40.768C146.958 40.768 147.486 40.336 147.486 39.136C147.486 37.912 146.958 37 145.23 35.488C143.022 33.544 142.326 32.152 142.326 30.232ZM151.063 30.232C151.063 27.544 152.383 26.008 154.951 26.008C157.519 26.008 158.839 27.544 158.839 30.232V30.76H156.343V30.064C156.343 28.864 155.863 28.408 155.023 28.408C154.183 28.408 153.703 28.864 153.703 30.064C153.703 31.288 154.231 32.2 155.959 33.712C158.167 35.656 158.863 37.048 158.863 38.968C158.863 41.656 157.519 43.192 154.927 43.192C152.335 43.192 150.991 41.656 150.991 38.968V37.936H153.487V39.136C153.487 40.336 154.015 40.768 154.855 40.768C155.695 40.768 156.223 40.336 156.223 39.136C156.223 37.912 155.695 37 153.967 35.488C151.759 33.544 151.063 32.152 151.063 30.232ZM160.136 43V26.2H162.776V43H160.136ZM166.89 30.064V39.136C166.89 40.336 167.418 40.792 168.258 40.792C169.098 40.792 169.626 40.336 169.626 39.136V30.064C169.626 28.864 169.098 28.408 168.258 28.408C167.418 28.408 166.89 28.864 166.89 30.064ZM164.25 38.968V30.232C164.25 27.544 165.666 26.008 168.258 26.008C170.85 26.008 172.266 27.544 172.266 30.232V38.968C172.266 41.656 170.85 43.192 168.258 43.192C165.666 43.192 164.25 41.656 164.25 38.968ZM179.382 43L176.142 30.832H176.094V43H173.718V26.2H177.03L179.694 36.256H179.742V26.2H182.094V43H179.382Z" fill="#061C52"/>
<rect x="208" y="14.0226" width="40.2569" height="39.9548" rx="19.9774" fill="#061C52"/>
<rect x="208" y="14.0226" width="40.2569" height="39.9548" rx="19.9774" fill="#DBFF28"/>
<g clip-path="url(#clip1_590_2732)">
<path d="M234.433 37.1407V37.1409C234.433 37.6809 234.002 38.0984 233.51 38.0984C233.007 38.0984 232.595 37.6531 232.595 37.1751V34.0076V34.0021L232.595 34.0021L232.734 30.4089L231.589 31.7061L231.583 31.7129L231.583 31.7127L223.083 40.2036C222.9 40.3963 222.673 40.4783 222.441 40.4783C221.931 40.4783 221.5 40.0265 221.5 39.5379C221.5 39.3066 221.605 39.0742 221.782 38.8966L221.782 38.8966L221.884 38.9986L221.782 38.8965L230.266 30.3958L230.273 30.389L230.273 30.3892L231.562 29.2598L227.787 29.3835L227.783 29.3837V29.3836H224.803C224.325 29.3836 223.889 28.9711 223.889 28.4774C223.889 27.9888 224.277 27.5541 224.838 27.5541H233.45C233.74 27.5541 233.987 27.6515 234.161 27.8297C234.335 28.0073 234.424 28.2532 234.425 28.5286L234.433 37.1407ZM234.433 37.1407L234.425 28.5288L234.433 37.1407Z" fill="#061C52" stroke="#061C52" stroke-width="0.288575"/>
</g>
</g>
</g>
<defs>
<filter id="filter0_b_590_2732" x="-47.5144" y="-47.5144" width="359.286" height="163.029" filterUnits="userSpaceOnUse" color-interpolation-filters="sRGB">
<feFlood flood-opacity="0" result="BackgroundImageFix"/>
<feGaussianBlur in="BackgroundImageFix" stdDeviation="23.7572"/>
<feComposite in2="SourceAlpha" operator="in" result="effect1_backgroundBlur_590_2732"/>
<feBlend mode="normal" in="SourceGraphic" in2="effect1_backgroundBlur_590_2732" result="shape"/>
</filter>
<clipPath id="clip0_590_2732">
<path d="M0 34C0 15.2223 15.2223 0 34 0H230.257C249.035 0 264.257 15.2223 264.257 34C264.257 52.7777 249.035 68 230.257 68H34C15.2223 68 0 52.7777 0 34Z" fill="white"/>
</clipPath>
<clipPath id="clip1_590_2732">
<rect width="16.2569" height="15.9548" fill="white" transform="translate(220 26.0226)"/>
</clipPath>
</defs>
</svg>
