<svg width="681" height="634" viewBox="0 0 681 634" fill="none" xmlns="http://www.w3.org/2000/svg">
<g opacity="0.4">
<path d="M661.884 379.834C665.142 379.103 667.304 377.341 668.351 374.326C669.953 369.709 669.5 365.034 668.594 360.383C667.494 354.709 665.614 349.269 663.393 343.946C663.208 343.503 663.043 343.055 662.823 342.5C663.267 342.466 663.608 342.422 663.948 342.422C672.797 342.422 681.641 342.422 690.49 342.417C691.153 342.417 691.664 342.388 691.942 343.265C695.682 355.133 698.083 367.221 697.932 379.712C697.864 385.381 697.065 390.947 694.815 396.227C691.547 403.897 685.791 408.48 677.512 409.332C672.607 409.838 667.63 409.59 662.682 409.702C661.791 409.722 660.895 409.775 660.018 409.921C657.491 410.35 656.824 412.069 658.377 414.114C658.767 414.626 659.254 415.064 659.809 415.658C659.414 415.707 659.127 415.775 658.845 415.775C648.822 415.78 638.795 415.785 628.772 415.76C628.295 415.76 627.681 415.614 627.36 415.303C624.067 412.103 621.296 408.538 619.913 404.067C617.668 396.796 620.103 390.694 626.765 386.949C630.886 384.631 635.4 383.696 640.046 383.379C642.345 383.224 644.663 383.35 647.064 383.35L647.064 381.568C645.783 381.436 644.458 381.353 643.153 381.154C638.147 380.389 633.33 379.04 628.976 376.332C620.829 371.263 618.18 363.441 619.387 354.7C620.61 345.846 627.428 340.279 636.223 339.3C642.184 338.633 647.682 339.826 652.475 343.62C655.85 346.294 658.056 349.81 659.634 353.735C662.901 361.868 663.276 370.289 661.966 378.855C661.922 379.128 661.918 379.405 661.879 379.834L661.884 379.834ZM661.06 380.209C659.492 377.014 657.754 374.18 655.255 371.949C654.14 370.956 652.733 370.147 651.32 369.67C649.246 368.964 647.191 369.354 645.642 371.053C644.079 372.772 644.171 374.832 645.111 376.737C646.367 379.284 648.72 380.418 651.452 380.574C653.872 380.711 656.307 380.613 658.737 380.564C659.453 380.55 660.164 380.35 661.06 380.209Z" fill="#061C52"/>
<path d="M656.135 550.238C656.865 553.496 658.628 555.658 661.643 556.705C666.26 558.308 670.935 557.855 675.586 556.949C681.259 555.848 686.699 553.968 692.022 551.748C692.465 551.563 692.914 551.397 693.469 551.178C693.503 551.621 693.547 551.962 693.547 552.303C693.547 561.152 693.547 569.996 693.552 578.845C693.552 579.507 693.581 580.018 692.704 580.296C680.836 584.036 668.748 586.437 656.257 586.286C650.588 586.218 645.021 585.419 639.742 583.169C632.072 579.902 627.489 574.145 626.637 565.866C626.13 560.962 626.379 555.985 626.267 551.037C626.247 550.145 626.194 549.249 626.048 548.373C625.619 545.845 623.9 545.178 621.854 546.732C621.343 547.121 620.905 547.608 620.311 548.163C620.262 547.769 620.194 547.482 620.194 547.199C620.189 537.177 620.184 527.149 620.208 517.126C620.208 516.649 620.354 516.036 620.666 515.714C623.866 512.422 627.431 509.651 631.901 508.268C639.172 506.023 645.275 508.458 649.02 515.12C651.338 519.24 652.273 523.755 652.589 528.401C652.745 530.699 652.619 533.017 652.619 535.418L654.401 535.418C654.533 534.138 654.615 532.813 654.815 531.508C655.58 526.501 656.929 521.685 659.636 517.331C664.706 509.183 672.527 506.534 681.269 507.742C690.123 508.964 695.689 515.782 696.668 524.578C697.336 530.539 696.142 536.037 692.349 540.829C689.675 544.204 686.159 546.41 682.233 547.988C674.1 551.256 665.68 551.631 657.114 550.321C656.841 550.277 656.563 550.272 656.135 550.233L656.135 550.238ZM655.76 549.415C658.955 547.847 661.789 546.108 664.019 543.61C665.013 542.495 665.821 541.087 666.299 539.675C667.005 537.6 666.615 535.545 664.915 533.996C663.196 532.433 661.136 532.526 659.232 533.466C656.685 534.722 655.55 537.074 655.395 539.806C655.258 542.227 655.356 544.662 655.404 547.092C655.419 547.808 655.619 548.519 655.76 549.415Z" fill="#DBFF28"/>
<path d="M567.231 464.687C567.962 467.945 569.725 470.108 572.739 471.155C577.356 472.757 582.032 472.304 586.683 471.398C592.356 470.298 597.796 468.418 603.119 466.197C603.562 466.012 604.01 465.846 604.565 465.627C604.599 466.07 604.643 466.411 604.643 466.752C604.643 475.601 604.643 484.445 604.648 493.294C604.648 493.956 604.677 494.468 603.801 494.745C591.932 498.485 579.845 500.886 567.353 500.735C561.684 500.667 556.118 499.869 550.839 497.619C543.168 494.351 538.586 488.594 537.733 480.315C537.227 475.411 537.475 470.434 537.363 465.486C537.344 464.595 537.29 463.699 537.144 462.822C536.716 460.294 534.996 459.627 532.951 461.181C532.44 461.57 532.001 462.057 531.407 462.613C531.359 462.218 531.29 461.931 531.29 461.648C531.286 451.626 531.281 441.598 531.305 431.576C531.305 431.098 531.451 430.485 531.763 430.163C534.962 426.871 538.527 424.1 542.998 422.717C550.269 420.472 556.371 422.907 560.116 429.569C562.434 433.689 563.369 438.204 563.686 442.85C563.842 445.149 563.715 447.467 563.715 449.868L565.498 449.868C565.629 448.587 565.712 447.262 565.912 445.957C566.676 440.951 568.025 436.134 570.733 431.78C575.803 423.633 583.624 420.983 592.366 422.191C601.22 423.413 606.786 430.232 607.765 439.027C608.432 444.988 607.239 450.486 603.445 455.278C600.772 458.653 597.255 460.859 593.33 462.437C585.197 465.705 576.777 466.08 568.21 464.77C567.938 464.726 567.66 464.721 567.231 464.682L567.231 464.687ZM566.856 463.864C570.051 462.296 572.886 460.557 575.116 458.059C576.11 456.944 576.918 455.536 577.395 454.124C578.101 452.049 577.712 449.994 576.012 448.446C574.293 446.882 572.233 446.975 570.329 447.915C567.782 449.171 566.647 451.523 566.491 454.256C566.355 456.676 566.452 459.111 566.501 461.541C566.516 462.257 566.715 462.968 566.856 463.864Z" fill="#DBFF28"/>
<path d="M572.979 633.127C576.237 632.396 578.4 630.633 579.447 627.619C581.049 623.002 580.596 618.327 579.69 613.676C578.59 608.002 576.71 602.562 574.489 597.239C574.304 596.796 574.138 596.348 573.919 595.793C574.362 595.759 574.703 595.715 575.044 595.715C583.893 595.715 592.737 595.715 601.586 595.71C602.248 595.71 602.76 595.681 603.037 596.558C606.777 608.426 609.178 620.513 609.027 633.005C608.959 638.674 608.161 644.24 605.911 649.52C602.643 657.19 596.886 661.773 588.607 662.625C583.703 663.131 578.726 662.883 573.778 662.995C572.887 663.015 571.991 663.068 571.114 663.214C568.586 663.643 567.919 665.362 569.473 667.407C569.862 667.919 570.349 668.357 570.905 668.951C570.51 669 570.223 669.068 569.94 669.068C559.918 669.073 549.89 669.078 539.868 669.053C539.39 669.053 538.777 668.907 538.455 668.596C535.163 665.396 532.392 661.831 531.009 657.36C528.764 650.089 531.199 643.987 537.861 640.242C541.981 637.924 546.496 636.989 551.142 636.672C553.441 636.517 555.759 636.643 558.16 636.643L558.16 634.861C556.879 634.729 555.554 634.646 554.249 634.447C549.243 633.682 544.426 632.333 540.072 629.625C531.925 624.556 529.275 616.734 530.483 607.993C531.705 599.139 538.524 593.572 547.319 592.593C553.28 591.926 558.778 593.119 563.57 596.913C566.945 599.587 569.151 603.103 570.729 607.028C573.997 615.161 574.372 623.582 573.062 632.148C573.018 632.421 573.013 632.698 572.974 633.127L572.979 633.127ZM572.156 633.502C570.588 630.307 568.849 627.473 566.351 625.242C565.236 624.249 563.828 623.44 562.416 622.963C560.341 622.257 558.286 622.647 556.738 624.346C555.174 626.065 555.267 628.125 556.207 630.03C557.463 632.577 559.815 633.711 562.548 633.867C564.968 634.004 567.403 633.906 569.833 633.857C570.549 633.843 571.26 633.643 572.156 633.502Z" fill="#061C52"/>
<path d="M571.999 374.086C571.269 370.828 569.506 368.666 566.491 367.619C561.874 366.017 557.199 366.469 552.548 367.375C546.874 368.476 541.434 370.356 536.111 372.576C535.668 372.762 535.22 372.927 534.665 373.146C534.631 372.703 534.587 372.362 534.587 372.021C534.587 363.172 534.587 354.328 534.582 345.479C534.582 344.817 534.553 344.306 535.43 344.028C547.298 340.288 559.386 337.887 571.877 338.038C577.546 338.106 583.112 338.905 588.392 341.155C596.062 344.423 600.645 350.179 601.497 358.458C602.003 363.362 601.755 368.34 601.867 373.288C601.887 374.179 601.94 375.075 602.086 375.951C602.515 378.479 604.234 379.146 606.279 377.593C606.791 377.203 607.229 376.716 607.823 376.161C607.872 376.555 607.94 376.843 607.94 377.125C607.945 387.148 607.95 397.175 607.925 407.198C607.925 407.675 607.779 408.289 607.468 408.61C604.268 411.902 600.703 414.673 596.232 416.056C588.961 418.302 582.859 415.867 579.114 409.204C576.796 405.084 575.861 400.57 575.544 395.924C575.389 393.625 575.515 391.307 575.515 388.906H573.733C573.601 390.187 573.518 391.511 573.319 392.816C572.554 397.823 571.205 402.639 568.497 406.993C563.428 415.141 555.606 417.79 546.865 416.582C538.011 415.36 532.444 408.542 531.465 399.747C530.798 393.786 531.991 388.287 535.785 383.495C538.459 380.12 541.975 377.914 545.9 376.336C554.033 373.068 562.454 372.693 571.02 374.003C571.293 374.047 571.57 374.052 571.999 374.091V374.086ZM572.374 374.909C569.179 376.477 566.345 378.216 564.114 380.714C563.121 381.83 562.312 383.237 561.835 384.649C561.129 386.724 561.519 388.779 563.218 390.328C564.937 391.891 566.997 391.799 568.902 390.859C571.449 389.602 572.583 387.25 572.739 384.518C572.876 382.097 572.778 379.662 572.73 377.232C572.715 376.516 572.515 375.805 572.374 374.909Z" fill="#F8F7F3"/>
<path d="M572.979 549.256C576.237 548.525 578.4 546.762 579.447 543.748C581.049 539.131 580.596 534.456 579.69 529.805C578.59 524.131 576.71 518.691 574.489 513.368C574.304 512.925 574.138 512.477 573.919 511.922C574.362 511.888 574.703 511.844 575.044 511.844C583.893 511.844 592.737 511.844 601.586 511.839C602.248 511.839 602.76 511.81 603.037 512.687C606.777 524.555 609.178 536.642 609.027 549.134C608.959 554.803 608.161 560.369 605.911 565.648C602.643 573.319 596.886 577.902 588.607 578.754C583.703 579.26 578.726 579.012 573.778 579.124C572.887 579.143 571.991 579.197 571.114 579.343C568.586 579.772 567.919 581.491 569.473 583.536C569.862 584.048 570.349 584.486 570.905 585.08C570.51 585.129 570.223 585.197 569.94 585.197C559.918 585.202 549.89 585.207 539.868 585.182C539.39 585.182 538.777 585.036 538.455 584.725C535.163 581.525 532.392 577.96 531.009 573.489C528.764 566.218 531.199 560.116 537.861 556.371C541.981 554.053 546.496 553.118 551.142 552.801C553.441 552.645 555.759 552.772 558.16 552.772L558.16 550.99C556.879 550.858 555.554 550.775 554.249 550.576C549.243 549.811 544.426 548.462 540.072 545.754C531.925 540.685 529.275 532.863 530.483 524.121C531.705 515.268 538.524 509.701 547.319 508.722C553.28 508.055 558.778 509.248 563.57 513.042C566.945 515.716 569.151 519.232 570.729 523.157C573.997 531.29 574.372 539.711 573.062 548.277C573.018 548.55 573.013 548.827 572.974 549.256L572.979 549.256ZM572.156 549.631C570.588 546.436 568.849 543.602 566.351 541.371C565.236 540.378 563.828 539.569 562.416 539.092C560.341 538.386 558.286 538.775 556.738 540.475C555.174 542.194 555.267 544.254 556.207 546.158C557.463 548.706 559.815 549.84 562.548 549.996C564.968 550.132 567.403 550.035 569.833 549.986C570.549 549.972 571.26 549.772 572.156 549.631Z" fill="#F8F7F3"/>
<path d="M655.155 458.939C651.896 459.67 649.734 461.433 648.687 464.448C647.085 469.064 647.538 473.74 648.444 478.391C649.544 484.064 651.424 489.504 653.645 494.827C653.83 495.27 653.995 495.718 654.215 496.273C653.771 496.307 653.431 496.351 653.09 496.351C644.241 496.351 635.397 496.351 626.548 496.356C625.885 496.356 625.374 496.385 625.097 495.509C621.356 483.64 618.955 471.553 619.106 459.061C619.175 453.392 619.973 447.826 622.223 442.547C625.491 434.876 631.247 430.294 639.527 429.441C644.431 428.935 649.408 429.183 654.356 429.071C655.247 429.052 656.143 428.998 657.02 428.852C659.547 428.424 660.215 426.704 658.661 424.659C658.271 424.148 657.784 423.709 657.229 423.115C657.624 423.067 657.911 422.998 658.193 422.998C668.216 422.994 678.244 422.989 688.266 423.013C688.743 423.013 689.357 423.159 689.678 423.471C692.971 426.67 695.742 430.235 697.125 434.706C699.37 441.977 696.935 448.079 690.273 451.824C686.153 454.142 681.638 455.078 676.992 455.394C674.693 455.55 672.375 455.423 669.974 455.423L669.974 457.206C671.255 457.337 672.58 457.42 673.885 457.62C678.891 458.384 683.708 459.733 688.062 462.441C696.209 467.511 698.859 475.332 697.651 484.074C696.428 492.928 689.61 498.494 680.815 499.473C674.854 500.14 669.356 498.947 664.564 495.153C661.189 492.48 658.982 488.963 657.405 485.038C654.137 476.905 653.762 468.485 655.072 459.918C655.116 459.646 655.12 459.368 655.159 458.939L655.155 458.939ZM655.978 458.564C657.546 461.759 659.284 464.594 661.783 466.824C662.898 467.818 664.305 468.626 665.718 469.103C667.792 469.809 669.848 469.42 671.396 467.72C672.96 466.001 672.867 463.941 671.927 462.037C670.671 459.49 668.318 458.355 665.586 458.199C663.166 458.063 660.731 458.16 658.301 458.209C657.585 458.224 656.874 458.423 655.978 458.564Z" fill="#F8F7F3"/>
<path d="M655.155 628.361C651.896 629.092 649.734 630.855 648.687 633.869C647.085 638.486 647.538 643.161 648.444 647.812C649.544 653.486 651.424 658.926 653.645 664.249C653.83 664.692 653.995 665.14 654.215 665.695C653.771 665.729 653.431 665.773 653.09 665.773C644.241 665.773 635.397 665.773 626.548 665.778C625.885 665.778 625.374 665.807 625.097 664.931C621.356 653.062 618.955 640.975 619.106 628.483C619.175 622.814 619.973 617.248 622.223 611.969C625.491 604.298 631.247 599.716 639.527 598.863C644.431 598.357 649.408 598.605 654.356 598.493C655.247 598.474 656.143 598.42 657.02 598.274C659.547 597.846 660.215 596.126 658.661 594.081C658.271 593.57 657.784 593.131 657.229 592.537C657.624 592.488 657.911 592.42 658.193 592.42C668.216 592.415 678.244 592.411 688.266 592.435C688.743 592.435 689.357 592.581 689.678 592.893C692.971 596.092 695.742 599.657 697.125 604.128C699.37 611.399 696.935 617.501 690.273 621.246C686.153 623.564 681.638 624.499 676.992 624.816C674.693 624.972 672.375 624.845 669.974 624.845L669.974 626.628C671.255 626.759 672.58 626.842 673.885 627.042C678.891 627.806 683.708 629.155 688.062 631.863C696.209 636.933 698.859 644.754 697.651 653.496C696.428 662.35 689.61 667.916 680.815 668.895C674.854 669.562 669.356 668.369 664.564 664.575C661.189 661.901 658.982 658.385 657.405 654.46C654.137 646.327 653.762 637.907 655.072 629.34C655.116 629.068 655.12 628.79 655.159 628.361L655.155 628.361ZM655.978 627.986C657.546 631.181 659.284 634.015 661.783 636.246C662.898 637.239 664.305 638.048 665.718 638.525C667.792 639.231 669.848 638.842 671.396 637.142C672.96 635.423 672.867 633.363 671.927 631.459C670.671 628.912 668.318 627.777 665.586 627.621C663.166 627.485 660.731 627.582 658.301 627.631C657.585 627.645 656.874 627.845 655.978 627.986Z" fill="#F8F7F3"/>
<path d="M308.551 469.795C311.81 469.064 313.972 467.301 315.019 464.287C316.621 459.67 316.168 454.995 315.262 450.344C314.162 444.67 312.282 439.23 310.061 433.907C309.876 433.464 309.711 433.016 309.491 432.461C309.935 432.427 310.275 432.383 310.616 432.383C319.465 432.383 328.309 432.383 337.158 432.378C337.821 432.378 338.332 432.349 338.61 433.226C342.35 445.094 344.751 457.181 344.6 469.673C344.532 475.342 343.733 480.908 341.483 486.188C338.215 493.858 332.459 498.441 324.18 499.293C319.275 499.799 314.298 499.551 309.35 499.663C308.459 499.683 307.563 499.736 306.686 499.882C304.159 500.311 303.491 502.03 305.045 504.075C305.435 504.587 305.922 505.025 306.477 505.619C306.082 505.668 305.795 505.736 305.513 505.736C295.49 505.741 285.463 505.746 275.44 505.721C274.963 505.721 274.349 505.575 274.028 505.264C270.735 502.064 267.964 498.499 266.581 494.028C264.336 486.757 266.771 480.655 273.433 476.91C277.554 474.592 282.068 473.657 286.714 473.34C289.013 473.184 291.331 473.311 293.732 473.311L293.732 471.529C292.451 471.397 291.126 471.314 289.821 471.115C284.815 470.35 279.998 469.001 275.644 466.293C267.497 461.224 264.848 453.402 266.055 444.66C267.278 435.807 274.096 430.24 282.891 429.261C288.852 428.594 294.35 429.787 299.143 433.581C302.517 436.255 304.724 439.771 306.302 443.696C309.569 451.829 309.944 460.25 308.634 468.816C308.59 469.089 308.586 469.366 308.547 469.795L308.551 469.795ZM307.728 470.17C306.16 466.975 304.422 464.141 301.923 461.91C300.808 460.917 299.401 460.108 297.988 459.631C295.914 458.925 293.859 459.315 292.31 461.014C290.747 462.733 290.839 464.793 291.779 466.698C293.035 469.245 295.388 470.379 298.12 470.535C300.54 470.672 302.975 470.574 305.405 470.525C306.121 470.511 306.832 470.311 307.728 470.17Z" fill="#061C52"/>
<path d="M302.803 640.199C303.533 643.457 305.296 645.619 308.311 646.666C312.928 648.269 317.603 647.816 322.254 646.91C327.927 645.809 333.367 643.929 338.69 641.709C339.133 641.524 339.581 641.358 340.137 641.139C340.171 641.582 340.215 641.923 340.215 642.264C340.215 651.113 340.215 659.957 340.219 668.806C340.219 669.468 340.249 669.979 339.372 670.257C327.504 673.997 315.416 676.398 302.924 676.247C297.256 676.179 291.689 675.38 286.41 673.13C278.74 669.863 274.157 664.106 273.305 655.827C272.798 650.923 273.047 645.946 272.935 640.998C272.915 640.106 272.862 639.21 272.715 638.334C272.287 635.806 270.568 635.139 268.522 636.693C268.011 637.082 267.573 637.569 266.979 638.124C266.93 637.73 266.862 637.443 266.862 637.16C266.857 627.137 266.852 617.11 266.876 607.087C266.876 606.61 267.022 605.996 267.334 605.675C270.534 602.383 274.099 599.612 278.569 598.229C285.84 595.984 291.942 598.419 295.688 605.081C298.006 609.201 298.941 613.716 299.257 618.362C299.413 620.66 299.287 622.978 299.287 625.379L301.069 625.379C301.2 624.099 301.283 622.774 301.483 621.469C302.248 616.462 303.597 611.646 306.304 607.292C311.374 599.144 319.195 596.495 327.937 597.703C336.791 598.925 342.357 605.743 343.336 614.539C344.004 620.5 342.81 625.998 339.017 630.79C336.343 634.165 332.827 636.371 328.901 637.949C320.768 641.217 312.348 641.592 303.782 640.282C303.509 640.238 303.231 640.233 302.803 640.194L302.803 640.199ZM302.428 639.376C305.623 637.808 308.457 636.069 310.687 633.571C311.681 632.456 312.489 631.048 312.967 629.636C313.673 627.561 313.283 625.506 311.583 623.957C309.864 622.394 307.804 622.487 305.9 623.426C303.353 624.683 302.218 627.035 302.062 629.767C301.926 632.188 302.024 634.623 302.072 637.053C302.087 637.769 302.287 638.48 302.428 639.376Z" fill="#DBFF28"/>
<path d="M213.899 554.648C214.63 557.906 216.393 560.069 219.407 561.116C224.024 562.718 228.7 562.265 233.35 561.359C239.024 560.258 244.464 558.379 249.787 556.158C250.23 555.973 250.678 555.807 251.233 555.588C251.267 556.031 251.311 556.372 251.311 556.713C251.311 565.562 251.311 574.406 251.316 583.255C251.316 583.917 251.345 584.429 250.469 584.706C238.6 588.446 226.513 590.847 214.021 590.696C208.352 590.628 202.786 589.83 197.507 587.58C189.836 584.312 185.254 578.555 184.401 570.276C183.895 565.372 184.143 560.395 184.031 555.447C184.012 554.556 183.958 553.66 183.812 552.783C183.384 550.255 181.664 549.588 179.619 551.142C179.108 551.531 178.669 552.018 178.075 552.574C178.027 552.179 177.958 551.892 177.958 551.609C177.953 541.587 177.949 531.559 177.973 521.537C177.973 521.059 178.119 520.446 178.431 520.124C181.63 516.832 185.195 514.061 189.666 512.678C196.937 510.433 203.039 512.868 206.784 519.53C209.102 523.65 210.037 528.165 210.354 532.811C210.51 535.109 210.383 537.428 210.383 539.829L212.166 539.829C212.297 538.548 212.38 537.223 212.58 535.918C213.344 530.911 214.693 526.095 217.401 521.741C222.471 513.594 230.292 510.944 239.034 512.152C247.888 513.374 253.454 520.192 254.433 528.988C255.1 534.949 253.907 540.447 250.113 545.239C247.44 548.614 243.923 550.82 239.998 552.398C231.865 555.666 223.445 556.041 214.878 554.731C214.606 554.687 214.328 554.682 213.899 554.643L213.899 554.648ZM213.524 553.825C216.719 552.257 219.554 550.518 221.784 548.02C222.778 546.905 223.586 545.497 224.063 544.085C224.769 542.01 224.38 539.955 222.68 538.407C220.961 536.843 218.901 536.936 216.997 537.876C214.45 539.132 213.315 541.484 213.159 544.216C213.023 546.637 213.12 549.072 213.169 551.502C213.184 552.218 213.383 552.929 213.524 553.825Z" fill="#DBFF28"/>
<path d="M218.667 464.047C217.936 460.789 216.174 458.627 213.159 457.58C208.542 455.977 203.867 456.43 199.216 457.336C193.542 458.437 188.102 460.317 182.779 462.537C182.336 462.722 181.888 462.888 181.333 463.107C181.299 462.664 181.255 462.323 181.255 461.982C181.255 453.133 181.255 444.289 181.25 435.44C181.25 434.778 181.221 434.267 182.098 433.989C193.966 430.249 206.054 427.848 218.545 427.999C224.214 428.067 229.78 428.866 235.06 431.116C242.73 434.384 247.313 440.14 248.165 448.419C248.671 453.323 248.423 458.3 248.535 463.248C248.555 464.14 248.608 465.036 248.754 465.912C249.183 468.44 250.902 469.107 252.947 467.554C253.459 467.164 253.897 466.677 254.491 466.122C254.54 466.516 254.608 466.804 254.608 467.086C254.613 477.109 254.618 487.136 254.593 497.159C254.593 497.636 254.447 498.25 254.136 498.571C250.936 501.863 247.371 504.634 242.9 506.017C235.629 508.262 229.527 505.827 225.782 499.165C223.464 495.045 222.529 490.531 222.212 485.885C222.057 483.586 222.183 481.268 222.183 478.867H220.401C220.269 480.148 220.186 481.472 219.987 482.777C219.222 487.784 217.873 492.6 215.165 496.954C210.096 505.102 202.274 507.751 193.533 506.543C184.679 505.321 179.112 498.503 178.133 489.708C177.466 483.747 178.659 478.248 182.453 473.456C185.127 470.081 188.643 467.875 192.568 466.297C200.701 463.029 209.122 462.654 217.688 463.964C217.961 464.008 218.238 464.013 218.667 464.052V464.047ZM219.042 464.87C215.847 466.438 213.013 468.177 210.782 470.675C209.789 471.791 208.98 473.198 208.503 474.61C207.797 476.685 208.187 478.74 209.886 480.289C211.605 481.852 213.665 481.76 215.57 480.82C218.117 479.563 219.251 477.211 219.407 474.479C219.544 472.058 219.446 469.623 219.397 467.193C219.383 466.477 219.183 465.766 219.042 464.87Z" fill="#F8F7F3"/>
<path d="M219.647 639.217C222.905 638.486 225.068 636.723 226.115 633.709C227.717 629.092 227.264 624.417 226.358 619.766C225.258 614.092 223.378 608.652 221.157 603.329C220.972 602.886 220.806 602.438 220.587 601.883C221.03 601.849 221.371 601.805 221.712 601.805C230.561 601.805 239.405 601.805 248.254 601.8C248.916 601.8 249.428 601.771 249.705 602.647C253.445 614.516 255.846 626.603 255.695 639.095C255.627 644.764 254.829 650.33 252.579 655.609C249.311 663.28 243.554 667.863 235.275 668.715C230.371 669.221 225.394 668.973 220.446 669.085C219.555 669.104 218.659 669.158 217.782 669.304C215.254 669.733 214.587 671.452 216.141 673.497C216.53 674.009 217.017 674.447 217.573 675.041C217.178 675.09 216.891 675.158 216.608 675.158C206.586 675.163 196.558 675.168 186.536 675.143C186.058 675.143 185.445 674.997 185.123 674.685C181.831 671.486 179.06 667.921 177.677 663.45C175.432 656.179 177.867 650.077 184.529 646.332C188.649 644.014 193.164 643.079 197.81 642.762C200.108 642.606 202.427 642.733 204.828 642.733L204.828 640.951C203.547 640.819 202.222 640.736 200.917 640.537C195.91 639.772 191.094 638.423 186.74 635.715C178.593 630.645 175.943 622.824 177.151 614.082C178.373 605.229 185.191 599.662 193.987 598.683C199.948 598.016 205.446 599.209 210.238 603.003C213.613 605.677 215.819 609.193 217.397 613.118C220.665 621.251 221.04 629.671 219.73 638.238C219.686 638.511 219.681 638.788 219.642 639.217L219.647 639.217ZM218.824 639.592C217.256 636.397 215.517 633.563 213.019 631.332C211.904 630.339 210.496 629.53 209.084 629.053C207.009 628.347 204.954 628.736 203.406 630.436C201.842 632.155 201.935 634.215 202.875 636.119C204.131 638.666 206.483 639.801 209.216 639.957C211.636 640.093 214.071 639.996 216.501 639.947C217.217 639.933 217.928 639.733 218.824 639.592Z" fill="#F8F7F3"/>
<path d="M301.823 548.9C298.564 549.631 296.402 551.394 295.355 554.408C293.753 559.025 294.206 563.701 295.112 568.351C296.212 574.025 298.092 579.465 300.313 584.788C300.498 585.231 300.663 585.679 300.883 586.234C300.439 586.268 300.099 586.312 299.758 586.312C290.909 586.312 282.065 586.312 273.216 586.317C272.553 586.317 272.042 586.346 271.764 585.47C268.024 573.601 265.623 561.514 265.774 549.022C265.842 543.353 266.641 537.787 268.891 532.508C272.159 524.837 277.915 520.255 286.194 519.402C291.099 518.896 296.076 519.144 301.024 519.032C301.915 519.013 302.811 518.959 303.688 518.813C306.215 518.385 306.883 516.665 305.329 514.62C304.939 514.109 304.452 513.67 303.897 513.076C304.292 513.027 304.579 512.959 304.861 512.959C314.884 512.954 324.912 512.95 334.934 512.974C335.411 512.974 336.025 513.12 336.346 513.432C339.639 516.631 342.41 520.196 343.793 524.667C346.038 531.938 343.603 538.04 336.941 541.785C332.821 544.103 328.306 545.038 323.66 545.355C321.361 545.511 319.043 545.384 316.642 545.384L316.642 547.167C317.923 547.298 319.248 547.381 320.553 547.581C325.559 548.345 330.376 549.694 334.73 552.402C342.877 557.472 345.527 565.293 344.319 574.035C343.096 582.889 336.278 588.455 327.483 589.434C321.522 590.101 316.024 588.908 311.231 585.114C307.857 582.441 305.65 578.924 304.073 574.999C300.805 566.866 300.43 558.446 301.74 549.879C301.784 549.607 301.788 549.329 301.827 548.9L301.823 548.9ZM302.646 548.525C304.214 551.72 305.952 554.555 308.451 556.785C309.566 557.779 310.973 558.587 312.386 559.064C314.46 559.77 316.516 559.381 318.064 557.681C319.627 555.962 319.535 553.902 318.595 551.998C317.339 549.451 314.986 548.316 312.254 548.16C309.834 548.024 307.399 548.121 304.969 548.17C304.253 548.184 303.542 548.384 302.646 548.525Z" fill="#F8F7F3"/>
<path d="M131.885 469.795C135.144 469.064 137.306 467.301 138.353 464.287C139.955 459.67 139.502 454.995 138.596 450.344C137.496 444.67 135.616 439.23 133.395 433.907C133.21 433.464 133.045 433.016 132.825 432.461C133.269 432.427 133.609 432.383 133.95 432.383C142.799 432.383 151.643 432.383 160.492 432.378C161.155 432.378 161.666 432.349 161.944 433.226C165.684 445.094 168.085 457.181 167.934 469.673C167.866 475.342 167.067 480.908 164.817 486.188C161.549 493.858 155.793 498.441 147.514 499.293C142.609 499.799 137.632 499.551 132.684 499.663C131.793 499.683 130.897 499.736 130.02 499.882C127.493 500.311 126.825 502.03 128.379 504.075C128.769 504.587 129.256 505.025 129.811 505.619C129.416 505.668 129.129 505.736 128.847 505.736C118.824 505.741 108.796 505.746 98.7739 505.721C98.2966 505.721 97.683 505.575 97.3616 505.264C94.0694 502.064 91.2983 498.499 89.9152 494.028C87.6701 486.757 90.1052 480.655 96.7674 476.91C100.888 474.592 105.402 473.657 110.048 473.34C112.347 473.184 114.665 473.311 117.066 473.311L117.066 471.529C115.785 471.397 114.46 471.314 113.155 471.115C108.149 470.35 103.332 469.001 98.9784 466.293C90.8308 461.224 88.1815 453.402 89.3893 444.66C90.6117 435.807 97.4298 430.24 106.225 429.261C112.186 428.594 117.684 429.787 122.477 433.581C125.851 436.255 128.058 439.771 129.636 443.696C132.903 451.829 133.278 460.25 131.968 468.816C131.924 469.089 131.92 469.366 131.881 469.795L131.885 469.795ZM131.062 470.17C129.494 466.975 127.756 464.141 125.257 461.91C124.142 460.917 122.735 460.108 121.322 459.631C119.248 458.925 117.192 459.315 115.644 461.014C114.081 462.733 114.173 464.793 115.113 466.698C116.369 469.245 118.722 470.379 121.454 470.535C123.874 470.672 126.309 470.574 128.739 470.525C129.455 470.511 130.166 470.311 131.062 470.17Z" fill="#061C52"/>
<path d="M126.137 640.199C126.867 643.457 128.63 645.619 131.645 646.666C136.262 648.269 140.937 647.816 145.588 646.91C151.261 645.809 156.701 643.929 162.024 641.709C162.467 641.524 162.915 641.358 163.471 641.139C163.505 641.582 163.549 641.923 163.549 642.264C163.549 651.113 163.549 659.957 163.553 668.806C163.553 669.468 163.583 669.979 162.706 670.257C150.838 673.997 138.75 676.398 126.258 676.247C120.59 676.179 115.023 675.38 109.744 673.13C102.074 669.863 97.491 664.106 96.6387 655.827C96.1323 650.923 96.3806 645.946 96.2686 640.998C96.2491 640.106 96.1956 639.21 96.0495 638.334C95.6209 635.806 93.9018 635.139 91.8563 636.693C91.345 637.082 90.9067 637.569 90.3125 638.124C90.2638 637.73 90.1956 637.443 90.1956 637.16C90.1908 627.137 90.1859 617.11 90.2103 607.087C90.2103 606.61 90.3563 605.996 90.668 605.675C93.8677 602.383 97.4326 599.612 101.903 598.229C109.174 595.984 115.276 598.419 119.022 605.081C121.34 609.201 122.275 613.716 122.591 618.362C122.747 620.66 122.621 622.978 122.621 625.379L124.403 625.379C124.534 624.099 124.617 622.774 124.817 621.469C125.582 616.462 126.931 611.646 129.638 607.292C134.708 599.144 142.529 596.495 151.271 597.703C160.125 598.925 165.691 605.743 166.67 614.539C167.337 620.5 166.144 625.998 162.351 630.79C159.677 634.165 156.161 636.371 152.235 637.949C144.102 641.217 135.682 641.592 127.116 640.282C126.843 640.238 126.565 640.233 126.137 640.194L126.137 640.199ZM125.762 639.376C128.957 637.808 131.791 636.069 134.021 633.571C135.015 632.456 135.823 631.048 136.301 629.636C137.007 627.561 136.617 625.506 134.917 623.957C133.198 622.394 131.138 622.487 129.234 623.426C126.687 624.683 125.552 627.035 125.396 629.767C125.26 632.188 125.358 634.623 125.406 637.053C125.421 637.769 125.621 638.48 125.762 639.376Z" fill="#DBFF28"/>
<path d="M37.2334 554.648C37.9639 557.906 39.7269 560.069 42.7414 561.116C47.3583 562.718 52.0335 562.265 56.6845 561.359C62.3581 560.258 67.7979 558.379 73.1209 556.158C73.5641 555.973 74.0121 555.807 74.5673 555.588C74.6014 556.031 74.6453 556.372 74.6453 556.713C74.6453 565.562 74.6453 574.406 74.6501 583.255C74.6501 583.917 74.6794 584.429 73.8027 584.706C61.9344 588.446 49.8469 590.847 37.3552 590.696C31.6864 590.628 26.1199 589.83 20.8408 587.58C13.1704 584.312 8.58768 578.555 7.73542 570.276C7.22893 565.372 7.4773 560.395 7.36528 555.447C7.34581 554.556 7.29226 553.66 7.14615 552.783C6.71759 550.255 4.99843 549.588 2.95301 551.142C2.44165 551.531 2.00335 552.018 1.40921 552.574C1.3605 552.179 1.29232 551.892 1.29232 551.609C1.28746 541.587 1.2826 531.559 1.30695 521.537C1.30695 521.059 1.45302 520.446 1.7647 520.124C4.96434 516.832 8.52924 514.061 13 512.678C20.271 510.433 26.3732 512.868 30.1182 519.53C32.4364 523.65 33.3714 528.165 33.688 532.811C33.8438 535.109 33.7172 537.428 33.7172 539.829L35.4997 539.829C35.6312 538.548 35.7139 537.223 35.9136 535.918C36.6782 530.911 38.0272 526.095 40.735 521.741C45.8047 513.594 53.6261 510.944 62.3678 512.152C71.2216 513.374 76.7881 520.192 77.767 528.988C78.4342 534.949 77.241 540.447 73.4472 545.239C70.7736 548.614 67.2574 550.82 63.3321 552.398C55.1991 555.666 46.7787 556.041 38.2123 554.731C37.9396 554.687 37.662 554.682 37.2334 554.643L37.2334 554.648ZM36.8584 553.825C40.0532 552.257 42.8876 550.518 45.118 548.02C46.1115 546.905 46.92 545.497 47.3972 544.085C48.1034 542.01 47.7138 539.955 46.0141 538.407C44.295 536.843 42.235 536.936 40.3308 537.876C37.7837 539.132 36.649 541.484 36.4932 544.216C36.3568 546.637 36.4542 549.072 36.5029 551.502C36.5175 552.218 36.7172 552.929 36.8584 553.825Z" fill="#DBFF28"/>
<path d="M42 464.047C41.2695 460.789 39.5065 458.627 36.4919 457.58C31.8751 455.977 27.1999 456.43 22.5489 457.336C16.8753 458.437 11.4355 460.317 6.11247 462.537C5.66929 462.722 5.22125 462.888 4.66606 463.107C4.63197 462.664 4.58814 462.323 4.58814 461.982C4.58814 453.133 4.58813 444.289 4.58326 435.44C4.58326 434.778 4.55404 434.267 5.43065 433.989C17.299 430.249 29.3865 427.848 41.8782 427.999C47.547 428.067 53.1135 428.866 58.3926 431.116C66.063 434.384 70.6457 440.14 71.498 448.419C72.0045 453.323 71.7561 458.3 71.8681 463.248C71.8876 464.14 71.9411 465.036 72.0872 465.912C72.5158 468.44 74.235 469.107 76.2804 467.554C76.7917 467.164 77.23 466.677 77.8242 466.122C77.8729 466.516 77.9411 466.804 77.9411 467.086C77.9459 477.109 77.9508 487.136 77.9264 497.159C77.9264 497.636 77.7804 498.25 77.4687 498.571C74.2691 501.863 70.7041 504.634 66.2334 506.017C58.9624 508.262 52.8602 505.827 49.1151 499.165C46.797 495.045 45.8619 490.531 45.5454 485.885C45.3896 483.586 45.5162 481.268 45.5162 478.867H43.7337C43.6022 480.148 43.5194 481.472 43.3198 482.777C42.5552 487.784 41.2062 492.6 38.4984 496.954C33.4287 505.102 25.6073 507.751 16.8656 506.543C8.01179 505.321 2.44531 498.503 1.46642 489.708C0.799224 483.747 1.99239 478.248 5.78617 473.456C8.45984 470.081 11.976 467.875 15.9013 466.297C24.0343 463.029 32.4547 462.654 41.0211 463.964C41.2938 464.008 41.5714 464.013 42 464.052V464.047ZM42.375 464.87C39.1802 466.438 36.3458 468.177 34.1154 470.675C33.1219 471.791 32.3134 473.198 31.8361 474.61C31.13 476.685 31.5196 478.74 33.2193 480.289C34.9384 481.852 36.9984 481.76 38.9026 480.82C41.4497 479.563 42.5844 477.211 42.7402 474.479C42.8766 472.058 42.7792 469.623 42.7305 467.193C42.7159 466.477 42.5162 465.766 42.375 464.87Z" fill="#F8F7F3"/>
<path d="M42.9812 639.217C46.2392 638.486 48.4016 636.723 49.4486 633.709C51.0509 629.092 50.598 624.417 49.6921 619.766C48.5915 614.092 46.7117 608.652 44.4909 603.329C44.3058 602.886 44.1403 602.438 43.9211 601.883C44.3643 601.849 44.7052 601.805 45.0461 601.805C53.895 601.805 62.739 601.805 71.5879 601.8C72.2503 601.8 72.7616 601.771 73.0392 602.647C76.7794 614.516 79.1804 626.603 79.0294 639.095C78.9612 644.764 78.1625 650.33 75.9126 655.609C72.6447 663.28 66.8883 667.863 58.6092 668.715C53.7051 669.221 48.7279 668.973 43.7799 669.085C42.8886 669.104 41.9925 669.158 41.1159 669.304C38.5884 669.733 37.9212 671.452 39.4747 673.497C39.8643 674.009 40.3513 674.447 40.9065 675.041C40.5121 675.09 40.2247 675.158 39.9423 675.158C29.9197 675.163 19.8922 675.168 9.8696 675.143C9.39233 675.143 8.7787 674.997 8.45727 674.685C5.1651 671.486 2.39404 667.921 1.01095 663.45C-1.23416 656.179 1.20088 650.077 7.86313 646.332C11.9832 644.014 16.4978 643.079 21.1438 642.762C23.4425 642.606 25.7606 642.733 28.1616 642.733L28.1616 640.951C26.8807 640.819 25.5561 640.736 24.2509 640.537C19.2445 639.772 14.428 638.423 10.0741 635.715C1.92652 630.645 -0.722795 622.824 0.484985 614.082C1.70737 605.229 8.52546 599.662 17.3208 598.683C23.2818 598.016 28.7801 599.209 33.5722 603.003C36.9472 605.677 39.1533 609.193 40.7312 613.118C43.999 621.251 44.374 629.671 43.064 638.238C43.0201 638.511 43.0153 638.788 42.9763 639.217L42.9812 639.217ZM42.1581 639.592C40.59 636.397 38.8514 633.563 36.353 631.332C35.2378 630.339 33.8303 629.53 32.418 629.053C30.3434 628.347 28.2882 628.736 26.7395 630.436C25.1762 632.155 25.2687 634.215 26.2087 636.119C27.4651 638.666 29.8174 639.801 32.5495 639.957C34.9699 640.093 37.405 639.996 39.8351 639.947C40.551 639.933 41.262 639.733 42.1581 639.592Z" fill="#F8F7F3"/>
<path d="M125.156 548.9C121.897 549.631 119.735 551.394 118.688 554.408C117.086 559.025 117.539 563.701 118.445 568.351C119.545 574.025 121.425 579.465 123.646 584.788C123.831 585.231 123.996 585.679 124.216 586.234C123.772 586.268 123.432 586.312 123.091 586.312C114.242 586.312 105.398 586.312 96.5488 586.317C95.8864 586.317 95.3751 586.346 95.0975 585.47C91.3573 573.601 88.9563 561.514 89.1073 549.022C89.1755 543.353 89.9742 537.787 92.2242 532.508C95.492 524.837 101.248 520.255 109.527 519.402C114.432 518.896 119.409 519.144 124.357 519.032C125.248 519.013 126.144 518.959 127.021 518.813C129.548 518.385 130.216 516.665 128.662 514.62C128.272 514.109 127.785 513.67 127.23 513.076C127.625 513.027 127.912 512.959 128.194 512.959C138.217 512.954 148.245 512.95 158.267 512.974C158.744 512.974 159.358 513.12 159.679 513.432C162.972 516.631 165.743 520.196 167.126 524.667C169.371 531.938 166.936 538.04 160.274 541.785C156.154 544.103 151.639 545.038 146.993 545.355C144.694 545.511 142.376 545.384 139.975 545.384L139.975 547.167C141.256 547.298 142.581 547.381 143.886 547.581C148.892 548.345 153.709 549.694 158.063 552.402C166.21 557.472 168.86 565.293 167.652 574.035C166.429 582.889 159.611 588.455 150.816 589.434C144.855 590.101 139.357 588.908 134.565 585.114C131.19 582.441 128.983 578.924 127.406 574.999C124.138 566.866 123.763 558.446 125.073 549.879C125.117 549.607 125.121 549.329 125.16 548.9L125.156 548.9ZM125.979 548.525C127.547 551.72 129.285 554.555 131.784 556.785C132.899 557.779 134.306 558.587 135.719 559.064C137.793 559.77 139.849 559.381 141.397 557.681C142.96 555.962 142.868 553.902 141.928 551.998C140.672 549.451 138.319 548.316 135.587 548.16C133.167 548.024 130.732 548.121 128.302 548.17C127.586 548.184 126.875 548.384 125.979 548.525Z" fill="#F8F7F3"/>
<path d="M661.884 42.4277C665.142 41.6972 667.304 39.9343 668.351 36.9197C669.953 32.3029 669.5 27.6276 668.594 22.9767C667.494 17.303 665.614 11.8632 663.393 6.5402C663.208 6.09703 663.043 5.64898 662.823 5.09379C663.267 5.0597 663.608 5.01587 663.948 5.01587C672.797 5.01587 681.641 5.01587 690.49 5.011C691.153 5.011 691.664 4.98177 691.942 5.85838C695.682 17.7267 698.083 29.8143 697.932 42.306C697.864 47.9747 697.065 53.5412 694.815 58.8204C691.547 66.4907 685.791 71.0734 677.512 71.9257C672.607 72.4322 667.63 72.1838 662.682 72.2958C661.791 72.3153 660.895 72.3689 660.018 72.515C657.491 72.9435 656.824 74.6627 658.377 76.7081C658.767 77.2195 659.254 77.6578 659.809 78.2519C659.414 78.3006 659.127 78.3688 658.845 78.3688C648.822 78.3737 638.795 78.3785 628.772 78.3542C628.295 78.3542 627.681 78.2081 627.36 77.8964C624.067 74.6968 621.296 71.1319 619.913 66.6612C617.668 59.3901 620.103 53.288 626.765 49.5429C630.886 47.2247 635.4 46.2897 640.046 45.9731C642.345 45.8173 644.663 45.9439 647.064 45.9439L647.064 44.1615C645.783 44.03 644.458 43.9472 643.153 43.7475C638.147 42.9829 633.33 41.6339 628.976 38.9261C620.829 33.8564 618.18 26.0351 619.387 17.2933C620.61 8.43952 627.428 2.87304 636.223 1.89416C642.184 1.22696 647.682 2.42012 652.475 6.2139C655.85 8.88757 658.056 12.4038 659.634 16.329C662.901 24.462 663.276 32.8824 661.966 41.4488C661.922 41.7216 661.918 41.9992 661.879 42.4277L661.884 42.4277ZM661.06 42.8027C659.492 39.6079 657.754 36.7736 655.255 34.5431C654.14 33.5496 652.733 32.7411 651.32 32.2639C649.246 31.5577 647.191 31.9473 645.642 33.647C644.079 35.3661 644.171 37.4262 645.111 39.3304C646.367 41.8774 648.72 43.0121 651.452 43.168C653.872 43.3043 656.307 43.2069 658.737 43.1582C659.453 43.1436 660.164 42.9439 661.06 42.8027Z" fill="#061C52"/>
<path d="M656.135 212.832C656.865 216.09 658.628 218.252 661.643 219.299C666.26 220.901 670.935 220.449 675.586 219.543C681.259 218.442 686.699 216.562 692.022 214.341C692.465 214.156 692.914 213.991 693.469 213.772C693.503 214.215 693.547 214.556 693.547 214.897C693.547 223.746 693.547 232.59 693.552 241.439C693.552 242.101 693.581 242.612 692.704 242.89C680.836 246.63 668.748 249.031 656.257 248.88C650.588 248.812 645.021 248.013 639.742 245.763C632.072 242.495 627.489 236.739 626.637 228.46C626.13 223.556 626.379 218.578 626.267 213.63C626.247 212.739 626.194 211.843 626.048 210.967C625.619 208.439 623.9 207.772 621.854 209.325C621.343 209.715 620.905 210.202 620.311 210.757C620.262 210.363 620.194 210.075 620.194 209.793C620.189 199.77 620.184 189.743 620.208 179.72C620.208 179.243 620.354 178.629 620.666 178.308C623.866 175.016 627.431 172.245 631.901 170.862C639.172 168.616 645.275 171.051 649.02 177.714C651.338 181.834 652.273 186.348 652.589 190.994C652.745 193.293 652.619 195.611 652.619 198.012L654.401 198.012C654.533 196.731 654.615 195.407 654.815 194.101C655.58 189.095 656.929 184.279 659.636 179.925C664.706 171.777 672.527 169.128 681.269 170.336C690.123 171.558 695.689 178.376 696.668 187.171C697.336 193.132 696.142 198.631 692.349 203.423C689.675 206.798 686.159 209.004 682.233 210.582C674.1 213.85 665.68 214.225 657.114 212.915C656.841 212.871 656.563 212.866 656.135 212.827L656.135 212.832ZM655.76 212.009C658.955 210.441 661.789 208.702 664.019 206.204C665.013 205.088 665.821 203.681 666.299 202.269C667.005 200.194 666.615 198.139 664.915 196.59C663.196 195.027 661.136 195.119 659.232 196.059C656.685 197.316 655.55 199.668 655.395 202.4C655.258 204.821 655.356 207.256 655.404 209.686C655.419 210.402 655.619 211.113 655.76 212.009Z" fill="#DBFF28"/>
<path d="M567.231 127.281C567.962 130.539 569.725 132.701 572.739 133.748C577.356 135.351 582.032 134.898 586.683 133.992C592.356 132.891 597.796 131.011 603.119 128.791C603.562 128.606 604.01 128.44 604.565 128.221C604.599 128.664 604.643 129.005 604.643 129.346C604.643 138.195 604.643 147.039 604.648 155.888C604.648 156.55 604.677 157.061 603.801 157.339C591.932 161.079 579.845 163.48 567.353 163.329C561.684 163.261 556.118 162.462 550.839 160.212C543.168 156.945 538.586 151.188 537.733 142.909C537.227 138.005 537.475 133.028 537.363 128.08C537.344 127.188 537.29 126.292 537.144 125.416C536.716 122.888 534.996 122.221 532.951 123.775C532.44 124.164 532.001 124.651 531.407 125.206C531.359 124.812 531.29 124.525 531.29 124.242C531.286 114.219 531.281 104.192 531.305 94.1694C531.305 93.6921 531.451 93.0785 531.763 92.7571C534.962 89.4649 538.527 86.6939 542.998 85.3108C550.269 83.0657 556.371 85.5007 560.116 92.1629C562.434 96.283 563.369 100.798 563.686 105.444C563.842 107.742 563.715 110.06 563.715 112.461L565.498 112.461C565.629 111.181 565.712 109.856 565.912 108.551C566.676 103.544 568.025 98.7278 570.733 94.374C575.803 86.2263 583.624 83.577 592.366 84.7848C601.22 86.0072 606.786 92.8253 607.765 101.621C608.432 107.582 607.239 113.08 603.445 117.872C600.772 121.247 597.255 123.453 593.33 125.031C585.197 128.299 576.777 128.674 568.21 127.364C567.938 127.32 567.66 127.315 567.231 127.276L567.231 127.281ZM566.856 126.458C570.051 124.89 572.886 123.151 575.116 120.653C576.11 119.538 576.918 118.13 577.395 116.718C578.101 114.643 577.712 112.588 576.012 111.039C574.293 109.476 572.233 109.569 570.329 110.508C567.782 111.765 566.647 114.117 566.491 116.849C566.355 119.27 566.452 121.705 566.501 124.135C566.516 124.851 566.715 125.562 566.856 126.458Z" fill="#DBFF28"/>
<path d="M572.979 295.721C576.237 294.99 578.4 293.227 579.447 290.213C581.049 285.596 580.596 280.921 579.69 276.27C578.59 270.596 576.71 265.156 574.489 259.833C574.304 259.39 574.138 258.942 573.919 258.387C574.362 258.353 574.703 258.309 575.044 258.309C583.893 258.309 592.737 258.309 601.586 258.304C602.248 258.304 602.76 258.275 603.037 259.151C606.777 271.02 609.178 283.107 609.027 295.599C608.959 301.268 608.161 306.834 605.911 312.113C602.643 319.784 596.886 324.366 588.607 325.219C583.703 325.725 578.726 325.477 573.778 325.589C572.887 325.608 571.991 325.662 571.114 325.808C568.586 326.237 567.919 327.956 569.473 330.001C569.862 330.512 570.349 330.951 570.905 331.545C570.51 331.594 570.223 331.662 569.94 331.662C559.918 331.667 549.89 331.671 539.868 331.647C539.39 331.647 538.777 331.501 538.455 331.189C535.163 327.99 532.392 324.425 531.009 319.954C528.764 312.683 531.199 306.581 537.861 302.836C541.981 300.518 546.496 299.583 551.142 299.266C553.441 299.11 555.759 299.237 558.16 299.237L558.16 297.454C556.879 297.323 555.554 297.24 554.249 297.04C549.243 296.276 544.426 294.927 540.072 292.219C531.925 287.149 529.275 279.328 530.483 270.586C531.705 261.732 538.524 256.166 547.319 255.187C553.28 254.52 558.778 255.713 563.57 259.507C566.945 262.181 569.151 265.697 570.729 269.622C573.997 277.755 574.372 286.175 573.062 294.742C573.018 295.015 573.013 295.292 572.974 295.721L572.979 295.721ZM572.156 296.096C570.588 292.901 568.849 290.067 566.351 287.836C565.236 286.843 563.828 286.034 562.416 285.557C560.341 284.851 558.286 285.24 556.738 286.94C555.174 288.659 555.267 290.719 556.207 292.623C557.463 295.17 559.815 296.305 562.548 296.461C564.968 296.597 567.403 296.5 569.833 296.451C570.549 296.437 571.26 296.237 572.156 296.096Z" fill="#061C52"/>
<path d="M571.999 36.68C571.269 33.4219 569.506 31.2596 566.491 30.2125C561.874 28.6103 557.199 29.0632 552.548 29.969C546.874 31.0696 541.434 32.9495 536.111 35.1702C535.668 35.3553 535.22 35.5209 534.665 35.74C534.631 35.2969 534.587 34.956 534.587 34.615C534.587 25.7661 534.587 16.9221 534.582 8.07319C534.582 7.41086 534.553 6.89951 535.43 6.62191C547.298 2.8817 559.386 0.480758 571.877 0.63173C577.546 0.699911 583.112 1.4986 588.392 3.74857C596.062 7.01639 600.645 12.7728 601.497 21.0519C602.003 25.9561 601.755 30.9333 601.867 35.8813C601.887 36.7725 601.94 37.6686 602.086 38.5452C602.515 41.0728 604.234 41.74 606.279 40.1864C606.791 39.7968 607.229 39.3098 607.823 38.7546C607.872 39.1491 607.94 39.4364 607.94 39.7189C607.945 49.7415 607.95 59.7689 607.925 69.7915C607.925 70.2688 607.779 70.8824 607.468 71.2039C604.268 74.496 600.703 77.2671 596.232 78.6502C588.961 80.8953 582.859 78.4603 579.114 71.798C576.796 67.6779 575.861 63.1634 575.544 58.5173C575.389 56.2187 575.515 53.9005 575.515 51.4996H573.733C573.601 52.7804 573.518 54.105 573.319 55.4102C572.554 60.4167 571.205 65.2332 568.497 69.587C563.428 77.7346 555.606 80.3839 546.865 79.1761C538.011 77.9538 532.444 71.1357 531.465 62.3403C530.798 56.3794 531.991 50.8811 535.785 46.0889C538.459 42.714 541.975 40.5078 545.9 38.9299C554.033 35.6621 562.454 35.2871 571.02 36.5972C571.293 36.641 571.57 36.6459 571.999 36.6848V36.68ZM572.374 37.503C569.179 39.0712 566.345 40.8098 564.114 43.3081C563.121 44.4234 562.312 45.8308 561.835 47.2431C561.129 49.3178 561.519 51.3729 563.218 52.9216C564.937 54.4849 566.997 54.3924 568.902 53.4525C571.449 52.196 572.583 49.8437 572.739 47.1116C572.876 44.6912 572.778 42.2562 572.73 39.826C572.715 39.1101 572.515 38.3991 572.374 37.503Z" fill="#F8F7F3"/>
<path d="M572.979 211.85C576.237 211.119 578.4 209.356 579.447 206.342C581.049 201.725 580.596 197.049 579.69 192.399C578.59 186.725 576.71 181.285 574.489 175.962C574.304 175.519 574.138 175.071 573.919 174.516C574.362 174.482 574.703 174.438 575.044 174.438C583.893 174.438 592.737 174.438 601.586 174.433C602.248 174.433 602.76 174.404 603.037 175.28C606.777 187.149 609.178 199.236 609.027 211.728C608.959 217.397 608.161 222.963 605.911 228.242C602.643 235.913 596.886 240.495 588.607 241.348C583.703 241.854 578.726 241.606 573.778 241.718C572.887 241.737 571.991 241.791 571.114 241.937C568.586 242.365 567.919 244.085 569.473 246.13C569.862 246.641 570.349 247.08 570.905 247.674C570.51 247.723 570.223 247.791 569.94 247.791C559.918 247.796 549.89 247.8 539.868 247.776C539.39 247.776 538.777 247.63 538.455 247.318C535.163 244.119 532.392 240.554 531.009 236.083C528.764 228.812 531.199 222.71 537.861 218.965C541.981 216.647 546.496 215.712 551.142 215.395C553.441 215.239 555.759 215.366 558.16 215.366L558.16 213.583C556.879 213.452 555.554 213.369 554.249 213.169C549.243 212.405 544.426 211.056 540.072 208.348C531.925 203.278 529.275 195.457 530.483 186.715C531.705 177.861 538.524 172.295 547.319 171.316C553.28 170.649 558.778 171.842 563.57 175.636C566.945 178.309 569.151 181.826 570.729 185.751C573.997 193.884 574.372 202.304 573.062 210.871C573.018 211.143 573.013 211.421 572.974 211.85L572.979 211.85ZM572.156 212.225C570.588 209.03 568.849 206.195 566.351 203.965C565.236 202.971 563.828 202.163 562.416 201.686C560.341 200.98 558.286 201.369 556.738 203.069C555.174 204.788 555.267 206.848 556.207 208.752C557.463 211.299 559.815 212.434 562.548 212.59C564.968 212.726 567.403 212.629 569.833 212.58C570.549 212.565 571.26 212.366 572.156 212.225Z" fill="#F8F7F3"/>
<path d="M655.155 121.533C651.896 122.264 649.734 124.027 648.687 127.041C647.085 131.658 647.538 136.333 648.444 140.984C649.544 146.658 651.424 152.098 653.645 157.421C653.83 157.864 653.995 158.312 654.215 158.867C653.771 158.901 653.431 158.945 653.09 158.945C644.241 158.945 635.397 158.945 626.548 158.95C625.885 158.95 625.374 158.979 625.097 158.103C621.356 146.234 618.955 134.147 619.106 121.655C619.175 115.986 619.973 110.42 622.223 105.141C625.491 97.4702 631.247 92.8875 639.527 92.0352C644.431 91.5287 649.408 91.7771 654.356 91.6651C655.247 91.6456 656.143 91.5921 657.02 91.446C659.547 91.0174 660.215 89.2982 658.661 87.2528C658.271 86.7415 657.784 86.3032 657.229 85.709C657.624 85.6603 657.911 85.5921 658.193 85.5921C668.216 85.5873 678.244 85.5824 688.266 85.6068C688.743 85.6068 689.357 85.7528 689.678 86.0645C692.971 89.2641 695.742 92.8291 697.125 97.2998C699.37 104.571 696.935 110.673 690.273 114.418C686.153 116.736 681.638 117.671 676.992 117.988C674.693 118.144 672.375 118.017 669.974 118.017L669.974 119.799C671.255 119.931 672.58 120.014 673.885 120.213C678.891 120.978 683.708 122.327 688.062 125.035C696.209 130.105 698.859 137.926 697.651 146.668C696.428 155.521 689.61 161.088 680.815 162.067C674.854 162.734 669.356 161.541 664.564 157.747C661.189 155.073 658.982 151.557 657.405 147.632C654.137 139.499 653.762 131.079 655.072 122.512C655.116 122.239 655.12 121.962 655.159 121.533L655.155 121.533ZM655.978 121.158C657.546 124.353 659.284 127.187 661.783 129.418C662.898 130.411 664.305 131.22 665.718 131.697C667.792 132.403 669.848 132.014 671.396 130.314C672.96 128.595 672.867 126.535 671.927 124.631C670.671 122.084 668.318 120.949 665.586 120.793C663.166 120.657 660.731 120.754 658.301 120.803C657.585 120.817 656.874 121.017 655.978 121.158Z" fill="#F8F7F3"/>
<path d="M655.155 290.955C651.896 291.686 649.734 293.449 648.687 296.463C647.085 301.08 647.538 305.755 648.444 310.406C649.544 316.08 651.424 321.52 653.645 326.843C653.83 327.286 653.995 327.734 654.215 328.289C653.771 328.323 653.431 328.367 653.09 328.367C644.241 328.367 635.397 328.367 626.548 328.372C625.885 328.372 625.374 328.401 625.097 327.524C621.356 315.656 618.955 303.569 619.106 291.077C619.175 285.408 619.973 279.842 622.223 274.562C625.491 266.892 631.247 262.309 639.527 261.457C644.431 260.951 649.408 261.199 654.356 261.087C655.247 261.067 656.143 261.014 657.02 260.868C659.547 260.439 660.215 258.72 658.661 256.675C658.271 256.163 657.784 255.725 657.229 255.131C657.624 255.082 657.911 255.014 658.193 255.014C668.216 255.009 678.244 255.004 688.266 255.029C688.743 255.029 689.357 255.175 689.678 255.486C692.971 258.686 695.742 262.251 697.125 266.722C699.37 273.993 696.935 280.095 690.273 283.84C686.153 286.158 681.638 287.093 676.992 287.41C674.693 287.566 672.375 287.439 669.974 287.439L669.974 289.221C671.255 289.353 672.58 289.436 673.885 289.635C678.891 290.4 683.708 291.749 688.062 294.457C696.209 299.526 698.859 307.348 697.651 316.09C696.428 324.943 689.61 330.51 680.815 331.489C674.854 332.156 669.356 330.963 664.564 327.169C661.189 324.495 658.982 320.979 657.405 317.054C654.137 308.921 653.762 300.5 655.072 291.934C655.116 291.661 655.12 291.384 655.159 290.955L655.155 290.955ZM655.978 290.58C657.546 293.775 659.284 296.609 661.783 298.84C662.898 299.833 664.305 300.642 665.718 301.119C667.792 301.825 669.848 301.435 671.396 299.736C672.96 298.017 672.867 295.957 671.927 294.052C670.671 291.505 668.318 290.371 665.586 290.215C663.166 290.078 660.731 290.176 658.301 290.225C657.585 290.239 656.874 290.439 655.978 290.58Z" fill="#F8F7F3"/>
<path d="M485.218 125.947C488.476 125.217 490.638 123.454 491.685 120.439C493.287 115.822 492.834 111.147 491.928 106.496C490.828 100.823 488.948 95.3827 486.727 90.0597C486.542 89.6166 486.377 89.1685 486.157 88.6133C486.601 88.5792 486.942 88.5354 487.282 88.5354C496.131 88.5354 504.975 88.5354 513.824 88.5305C514.487 88.5305 514.998 88.5013 515.276 89.3779C519.016 101.246 521.417 113.334 521.266 125.826C521.198 131.494 520.399 137.061 518.149 142.34C514.881 150.01 509.125 154.593 500.846 155.445C495.941 155.952 490.964 155.703 486.016 155.815C485.125 155.835 484.229 155.888 483.352 156.035C480.825 156.463 480.158 158.182 481.711 160.228C482.101 160.739 482.588 161.177 483.143 161.771C482.748 161.82 482.461 161.888 482.179 161.888C472.156 161.893 462.129 161.898 452.106 161.874C451.629 161.874 451.015 161.728 450.694 161.416C447.401 158.216 444.63 154.651 443.247 150.181C441.002 142.91 443.437 136.807 450.099 133.062C454.22 130.744 458.734 129.809 463.38 129.493C465.679 129.337 467.997 129.463 470.398 129.463L470.398 127.681C469.117 127.55 467.792 127.467 466.487 127.267C461.481 126.502 456.664 125.153 452.31 122.446C444.163 117.376 441.514 109.555 442.721 100.813C443.944 91.9591 450.762 86.3926 459.557 85.4137C465.518 84.7465 471.016 85.9397 475.809 89.7334C479.183 92.4071 481.39 95.9233 482.968 99.8486C486.235 107.982 486.61 116.402 485.3 124.968C485.256 125.241 485.252 125.519 485.213 125.947L485.218 125.947ZM484.394 126.322C482.826 123.127 481.088 120.293 478.589 118.063C477.474 117.069 476.067 116.261 474.654 115.783C472.58 115.077 470.525 115.467 468.976 117.167C467.413 118.886 467.505 120.946 468.445 122.85C469.701 125.397 472.054 126.532 474.786 126.687C477.206 126.824 479.641 126.726 482.071 126.678C482.787 126.663 483.498 126.463 484.394 126.322Z" fill="#061C52"/>
<path d="M479.469 296.351C480.199 299.609 481.962 301.772 484.977 302.819C489.594 304.421 494.269 303.968 498.92 303.062C504.593 301.962 510.033 300.082 515.356 297.861C515.799 297.676 516.247 297.51 516.803 297.291C516.837 297.734 516.881 298.075 516.881 298.416C516.881 307.265 516.881 316.109 516.885 324.958C516.885 325.62 516.915 326.132 516.038 326.409C504.17 330.15 492.082 332.55 479.591 332.4C473.922 332.331 468.355 331.533 463.076 329.283C455.406 326.015 450.823 320.258 449.971 311.979C449.464 307.075 449.713 302.098 449.601 297.15C449.581 296.259 449.528 295.363 449.382 294.486C448.953 291.958 447.234 291.291 445.188 292.845C444.677 293.234 444.239 293.721 443.645 294.277C443.596 293.882 443.528 293.595 443.528 293.312C443.523 283.29 443.518 273.262 443.542 263.24C443.542 262.762 443.688 262.149 444 261.827C447.2 258.535 450.765 255.764 455.235 254.381C462.506 252.136 468.609 254.571 472.354 261.233C474.672 265.353 475.607 269.868 475.923 274.514C476.079 276.813 475.953 279.131 475.953 281.532L477.735 281.532C477.867 280.251 477.949 278.926 478.149 277.621C478.914 272.615 480.263 267.798 482.97 263.444C488.04 255.297 495.861 252.647 504.603 253.855C513.457 255.077 519.023 261.896 520.002 270.691C520.67 276.652 519.476 282.15 515.683 286.942C513.009 290.317 509.493 292.523 505.567 294.101C497.434 297.369 489.014 297.744 480.448 296.434C480.175 296.39 479.897 296.385 479.469 296.346L479.469 296.351ZM479.094 295.528C482.289 293.96 485.123 292.221 487.353 289.723C488.347 288.608 489.155 287.2 489.633 285.788C490.339 283.713 489.949 281.658 488.249 280.11C486.53 278.546 484.47 278.639 482.566 279.579C480.019 280.835 478.884 283.188 478.729 285.92C478.592 288.34 478.69 290.775 478.738 293.205C478.753 293.921 478.953 294.632 479.094 295.528Z" fill="#DBFF28"/>
<path d="M390.565 210.801C391.296 214.059 393.059 216.221 396.073 217.268C400.69 218.87 405.366 218.417 410.016 217.511C415.69 216.411 421.13 214.531 426.453 212.31C426.896 212.125 427.344 211.96 427.899 211.74C427.933 212.184 427.977 212.525 427.977 212.865C427.977 221.714 427.977 230.558 427.982 239.407C427.982 240.07 428.011 240.581 427.135 240.859C415.266 244.599 403.179 247 390.687 246.849C385.018 246.781 379.452 245.982 374.173 243.732C366.502 240.464 361.92 234.708 361.067 226.429C360.561 221.524 360.809 216.547 360.697 211.599C360.678 210.708 360.624 209.812 360.478 208.935C360.05 206.408 358.33 205.741 356.285 207.294C355.774 207.684 355.335 208.171 354.741 208.726C354.693 208.331 354.624 208.044 354.624 207.762C354.619 197.739 354.615 187.712 354.639 177.689C354.639 177.212 354.785 176.598 355.097 176.277C358.296 172.984 361.861 170.213 366.332 168.83C373.603 166.585 379.705 169.02 383.45 175.682C385.768 179.803 386.703 184.317 387.02 188.963C387.176 191.262 387.049 193.58 387.049 195.981L388.832 195.981C388.963 194.7 389.046 193.375 389.246 192.07C390.01 187.064 391.359 182.247 394.067 177.893C399.137 169.746 406.958 167.097 415.7 168.304C424.554 169.527 430.12 176.345 431.099 185.14C431.766 191.101 430.573 196.599 426.779 201.392C424.106 204.767 420.589 206.973 416.664 208.551C408.531 211.818 400.111 212.193 391.544 210.883C391.272 210.839 390.994 210.835 390.565 210.796L390.565 210.801ZM390.19 209.977C393.385 208.409 396.22 206.671 398.45 204.172C399.444 203.057 400.252 201.65 400.729 200.237C401.435 198.163 401.046 196.108 399.346 194.559C397.627 192.996 395.567 193.088 393.663 194.028C391.116 195.284 389.981 197.637 389.825 200.369C389.689 202.789 389.786 205.224 389.835 207.654C389.85 208.37 390.049 209.081 390.19 209.977Z" fill="#DBFF28"/>
<path d="M396.313 379.24C399.571 378.51 401.734 376.747 402.781 373.732C404.383 369.115 403.93 364.44 403.024 359.789C401.924 354.116 400.044 348.676 397.823 343.353C397.638 342.91 397.472 342.461 397.253 341.906C397.696 341.872 398.037 341.828 398.378 341.828C407.227 341.828 416.071 341.828 424.92 341.823C425.582 341.823 426.094 341.794 426.371 342.671C430.111 354.539 432.512 366.627 432.361 379.118C432.293 384.787 431.495 390.354 429.245 395.633C425.977 403.303 420.22 407.886 411.941 408.738C407.037 409.245 402.06 408.996 397.112 409.108C396.221 409.128 395.325 409.181 394.448 409.327C391.92 409.756 391.253 411.475 392.807 413.521C393.196 414.032 393.683 414.47 394.239 415.064C393.844 415.113 393.557 415.181 393.274 415.181C383.252 415.186 373.224 415.191 363.202 415.167C362.724 415.167 362.111 415.021 361.789 414.709C358.497 411.509 355.726 407.944 354.343 403.474C352.098 396.203 354.533 390.1 361.195 386.355C365.315 384.037 369.83 383.102 374.476 382.786C376.775 382.63 379.093 382.756 381.494 382.756L381.494 380.974C380.213 380.842 378.888 380.76 377.583 380.56C372.577 379.795 367.76 378.446 363.406 375.739C355.259 370.669 352.609 362.848 353.817 354.106C355.039 345.252 361.857 339.686 370.653 338.707C376.614 338.039 382.112 339.233 386.904 343.026C390.279 345.7 392.485 349.216 394.063 353.142C397.331 361.275 397.706 369.695 396.396 378.261C396.352 378.534 396.347 378.812 396.308 379.24L396.313 379.24ZM395.49 379.615C393.922 376.42 392.183 373.586 389.685 371.356C388.57 370.362 387.162 369.554 385.75 369.076C383.675 368.37 381.62 368.76 380.072 370.459C378.508 372.179 378.601 374.239 379.541 376.143C380.797 378.69 383.149 379.825 385.882 379.98C388.302 380.117 390.737 380.019 393.167 379.971C393.883 379.956 394.594 379.756 395.49 379.615Z" fill="#061C52"/>
<path d="M395.333 120.199C394.602 116.941 392.84 114.779 389.825 113.732C385.208 112.13 380.533 112.583 375.882 113.489C370.208 114.589 364.768 116.469 359.445 118.69C359.002 118.875 358.554 119.04 357.999 119.26C357.965 118.816 357.921 118.475 357.921 118.135C357.921 109.286 357.921 100.442 357.916 91.5927C357.916 90.9304 357.887 90.419 358.764 90.1414C370.632 86.4012 382.72 84.0003 395.211 84.1513C400.88 84.2194 406.446 85.0181 411.726 87.2681C419.396 90.5359 423.979 96.2923 424.831 104.571C425.337 109.476 425.089 114.453 425.201 119.401C425.221 120.292 425.274 121.188 425.42 122.065C425.849 124.592 427.568 125.259 429.613 123.706C430.125 123.316 430.563 122.829 431.157 122.274C431.206 122.669 431.274 122.956 431.274 123.238C431.279 133.261 431.284 143.288 431.259 153.311C431.259 153.788 431.113 154.402 430.802 154.723C427.602 158.016 424.037 160.787 419.566 162.17C412.295 164.415 406.193 161.98 402.448 155.318C400.13 151.197 399.195 146.683 398.878 142.037C398.723 139.738 398.849 137.42 398.849 135.019H397.067C396.935 136.3 396.852 137.625 396.653 138.93C395.888 143.936 394.539 148.753 391.831 153.107C386.762 161.254 378.94 163.903 370.199 162.696C361.345 161.473 355.778 154.655 354.799 145.86C354.132 139.899 355.325 134.401 359.119 129.608C361.793 126.233 365.309 124.027 369.234 122.449C377.367 119.182 385.788 118.807 394.354 120.117C394.627 120.161 394.904 120.165 395.333 120.204V120.199ZM395.708 121.023C392.513 122.591 389.679 124.329 387.448 126.828C386.455 127.943 385.646 129.35 385.169 130.763C384.463 132.837 384.853 134.892 386.552 136.441C388.271 138.004 390.331 137.912 392.236 136.972C394.783 135.716 395.917 133.363 396.073 130.631C396.21 128.211 396.112 125.776 396.064 123.346C396.049 122.63 395.849 121.919 395.708 121.023Z" fill="#F8F7F3"/>
<path d="M396.313 295.369C399.571 294.639 401.734 292.876 402.781 289.861C404.383 285.244 403.93 280.569 403.024 275.918C401.924 270.244 400.044 264.805 397.823 259.482C397.638 259.038 397.472 258.59 397.253 258.035C397.696 258.001 398.037 257.957 398.378 257.957C407.227 257.957 416.071 257.957 424.92 257.952C425.582 257.952 426.094 257.923 426.371 258.8C430.111 270.668 432.512 282.756 432.361 295.247C432.293 300.916 431.495 306.483 429.245 311.762C425.977 319.432 420.22 324.015 411.941 324.867C407.037 325.374 402.06 325.125 397.112 325.237C396.221 325.257 395.325 325.31 394.448 325.456C391.92 325.885 391.253 327.604 392.807 329.65C393.196 330.161 393.683 330.599 394.239 331.193C393.844 331.242 393.557 331.31 393.274 331.31C383.252 331.315 373.224 331.32 363.202 331.296C362.724 331.296 362.111 331.15 361.789 330.838C358.497 327.638 355.726 324.073 354.343 319.603C352.098 312.332 354.533 306.229 361.195 302.484C365.315 300.166 369.83 299.231 374.476 298.915C376.775 298.759 379.093 298.885 381.494 298.885L381.494 297.103C380.213 296.971 378.888 296.889 377.583 296.689C372.577 295.924 367.76 294.575 363.406 291.868C355.259 286.798 352.609 278.976 353.817 270.235C355.039 261.381 361.857 255.814 370.653 254.836C376.614 254.168 382.112 255.362 386.904 259.155C390.279 261.829 392.485 265.345 394.063 269.27C397.331 277.403 397.706 285.824 396.396 294.39C396.352 294.663 396.347 294.941 396.308 295.369L396.313 295.369ZM395.49 295.744C393.922 292.549 392.183 289.715 389.685 287.484C388.57 286.491 387.162 285.683 385.75 285.205C383.675 284.499 381.62 284.889 380.072 286.588C378.508 288.308 378.601 290.368 379.541 292.272C380.797 294.819 383.149 295.954 385.882 296.109C388.302 296.246 390.737 296.148 393.167 296.1C393.883 296.085 394.594 295.885 395.49 295.744Z" fill="#F8F7F3"/>
<path d="M478.489 205.053C475.23 205.783 473.068 207.546 472.021 210.561C470.419 215.178 470.872 219.853 471.778 224.504C472.878 230.177 474.758 235.617 476.979 240.94C477.164 241.383 477.329 241.831 477.549 242.387C477.105 242.421 476.765 242.465 476.424 242.465C467.575 242.465 458.731 242.465 449.882 242.469C449.219 242.469 448.708 242.499 448.431 241.622C444.69 229.754 442.289 217.666 442.44 205.174C442.509 199.506 443.307 193.939 445.557 188.66C448.825 180.99 454.581 176.407 462.861 175.555C467.765 175.048 472.742 175.297 477.69 175.185C478.581 175.165 479.477 175.112 480.354 174.965C482.881 174.537 483.549 172.818 481.995 170.772C481.605 170.261 481.118 169.823 480.563 169.229C480.958 169.18 481.245 169.112 481.527 169.112C491.55 169.107 501.578 169.102 511.6 169.126C512.077 169.126 512.691 169.272 513.012 169.584C516.305 172.784 519.076 176.349 520.459 180.819C522.704 188.09 520.269 194.193 513.607 197.938C509.487 200.256 504.972 201.191 500.326 201.507C498.027 201.663 495.709 201.537 493.308 201.537L493.308 203.319C494.589 203.45 495.914 203.533 497.219 203.733C502.225 204.498 507.042 205.847 511.396 208.554C519.543 213.624 522.193 221.445 520.985 230.187C519.762 239.041 512.944 244.607 504.149 245.586C498.188 246.254 492.69 245.06 487.898 241.267C484.523 238.593 482.316 235.077 480.739 231.151C477.471 223.018 477.096 214.598 478.406 206.032C478.45 205.759 478.454 205.481 478.493 205.053L478.489 205.053ZM479.312 204.678C480.88 207.873 482.618 210.707 485.117 212.937C486.232 213.931 487.639 214.739 489.052 215.217C491.126 215.923 493.182 215.533 494.73 213.833C496.294 212.114 496.201 210.054 495.261 208.15C494.005 205.603 491.652 204.468 488.92 204.312C486.5 204.176 484.065 204.274 481.635 204.322C480.919 204.337 480.208 204.537 479.312 204.678Z" fill="#F8F7F3"/>
<path d="M478.489 374.475C475.23 375.205 473.068 376.968 472.021 379.983C470.419 384.599 470.872 389.275 471.778 393.926C472.878 399.599 474.758 405.039 476.979 410.362C477.164 410.805 477.329 411.253 477.549 411.809C477.105 411.843 476.765 411.886 476.424 411.886C467.575 411.886 458.731 411.886 449.882 411.891C449.219 411.891 448.708 411.921 448.431 411.044C444.69 399.176 442.289 387.088 442.44 374.596C442.509 368.928 443.307 363.361 445.557 358.082C448.825 350.412 454.581 345.829 462.861 344.977C467.765 344.47 472.742 344.719 477.69 344.606C478.581 344.587 479.477 344.533 480.354 344.387C482.881 343.959 483.549 342.24 481.995 340.194C481.605 339.683 481.118 339.245 480.563 338.65C480.958 338.602 481.245 338.534 481.527 338.534C491.55 338.529 501.578 338.524 511.6 338.548C512.077 338.548 512.691 338.694 513.012 339.006C516.305 342.206 519.076 345.77 520.459 350.241C522.704 357.512 520.269 363.614 513.607 367.359C509.487 369.678 504.972 370.613 500.326 370.929C498.027 371.085 495.709 370.958 493.308 370.958L493.308 372.741C494.589 372.872 495.914 372.955 497.219 373.155C502.225 373.919 507.042 375.268 511.396 377.976C519.543 383.046 522.193 390.867 520.985 399.609C519.762 408.463 512.944 414.029 504.149 415.008C498.188 415.675 492.69 414.482 487.898 410.688C484.523 408.015 482.316 404.499 480.739 400.573C477.471 392.44 477.096 384.02 478.406 375.454C478.45 375.181 478.454 374.903 478.493 374.475L478.489 374.475ZM479.312 374.1C480.88 377.294 482.618 380.129 485.117 382.359C486.232 383.353 487.639 384.161 489.052 384.638C491.126 385.345 493.182 384.955 494.73 383.255C496.294 381.536 496.201 379.476 495.261 377.572C494.005 375.025 491.652 373.89 488.92 373.734C486.5 373.598 484.065 373.695 481.635 373.744C480.919 373.759 480.208 373.958 479.312 374.1Z" fill="#F8F7F3"/>
<path d="M485.218 464.799C488.476 464.068 490.638 462.305 491.685 459.291C493.287 454.674 492.834 449.999 491.928 445.348C490.828 439.674 488.948 434.234 486.727 428.911C486.542 428.468 486.377 428.02 486.157 427.465C486.601 427.431 486.942 427.387 487.282 427.387C496.131 427.387 504.975 427.387 513.824 427.382C514.487 427.382 514.998 427.353 515.276 428.229C519.016 440.098 521.417 452.185 521.266 464.677C521.198 470.346 520.399 475.912 518.149 481.191C514.881 488.862 509.125 493.445 500.846 494.297C495.941 494.803 490.964 494.555 486.016 494.667C485.125 494.686 484.229 494.74 483.352 494.886C480.825 495.315 480.158 497.034 481.711 499.079C482.101 499.591 482.588 500.029 483.143 500.623C482.748 500.672 482.461 500.74 482.179 500.74C472.156 500.745 462.129 500.75 452.106 500.725C451.629 500.725 451.015 500.579 450.694 500.268C447.401 497.068 444.63 493.503 443.247 489.032C441.002 481.761 443.437 475.659 450.099 471.914C454.22 469.596 458.734 468.661 463.38 468.344C465.679 468.188 467.997 468.315 470.398 468.315L470.398 466.533C469.117 466.401 467.792 466.318 466.487 466.119C461.481 465.354 456.664 464.005 452.31 461.297C444.163 456.227 441.514 448.406 442.721 439.664C443.944 430.811 450.762 425.244 459.557 424.265C465.518 423.598 471.016 424.791 475.809 428.585C479.183 431.259 481.39 434.775 482.968 438.7C486.235 446.833 486.61 455.253 485.3 463.82C485.256 464.093 485.252 464.37 485.213 464.799L485.218 464.799ZM484.394 465.174C482.826 461.979 481.088 459.145 478.589 456.914C477.474 455.921 476.067 455.112 474.654 454.635C472.58 453.929 470.525 454.318 468.976 456.018C467.413 457.737 467.505 459.797 468.445 461.701C469.701 464.248 472.054 465.383 474.786 465.539C477.206 465.675 479.641 465.578 482.071 465.529C482.787 465.515 483.498 465.315 484.394 465.174Z" fill="#061C52"/>
<path d="M479.469 635.203C480.199 638.461 481.962 640.623 484.977 641.67C489.594 643.273 494.269 642.82 498.92 641.914C504.593 640.813 510.033 638.933 515.356 636.713C515.799 636.528 516.247 636.362 516.803 636.143C516.837 636.586 516.881 636.927 516.881 637.268C516.881 646.117 516.881 654.961 516.885 663.81C516.885 664.472 516.915 664.983 516.038 665.261C504.17 669.001 492.082 671.402 479.591 671.251C473.922 671.183 468.355 670.384 463.076 668.134C455.406 664.866 450.823 659.11 449.971 650.831C449.464 645.927 449.713 640.95 449.601 636.002C449.581 635.11 449.528 634.214 449.382 633.338C448.953 630.81 447.234 630.143 445.188 631.696C444.677 632.086 444.239 632.573 443.645 633.128C443.596 632.734 443.528 632.446 443.528 632.164C443.523 622.141 443.518 612.114 443.542 602.091C443.542 601.614 443.688 601 444 600.679C447.2 597.387 450.765 594.616 455.235 593.233C462.506 590.988 468.609 593.423 472.354 600.085C474.672 604.205 475.607 608.719 475.923 613.365C476.079 615.664 475.953 617.982 475.953 620.383L477.735 620.383C477.867 619.102 477.949 617.778 478.149 616.473C478.914 611.466 480.263 606.65 482.97 602.296C488.04 594.148 495.861 591.499 504.603 592.707C513.457 593.929 519.023 600.747 520.002 609.542C520.67 615.503 519.476 621.002 515.683 625.794C513.009 629.169 509.493 631.375 505.567 632.953C497.434 636.221 489.014 636.596 480.448 635.286C480.175 635.242 479.897 635.237 479.469 635.198L479.469 635.203ZM479.094 634.38C482.289 632.812 485.123 631.073 487.353 628.575C488.347 627.459 489.155 626.052 489.633 624.64C490.339 622.565 489.949 620.51 488.249 618.961C486.53 617.398 484.47 617.49 482.566 618.43C480.019 619.687 478.884 622.039 478.729 624.771C478.592 627.192 478.69 629.627 478.738 632.057C478.753 632.773 478.953 633.484 479.094 634.38Z" fill="#DBFF28"/>
<path d="M390.565 549.652C391.296 552.91 393.059 555.072 396.073 556.12C400.69 557.722 405.366 557.269 410.016 556.363C415.69 555.262 421.13 553.383 426.453 551.162C426.896 550.977 427.344 550.811 427.899 550.592C427.933 551.035 427.977 551.376 427.977 551.717C427.977 560.566 427.977 569.41 427.982 578.259C427.982 578.921 428.011 579.433 427.135 579.71C415.266 583.45 403.179 585.851 390.687 585.7C385.018 585.632 379.452 584.833 374.173 582.583C366.502 579.316 361.92 573.559 361.067 565.28C360.561 560.376 360.809 555.399 360.697 550.451C360.678 549.56 360.624 548.663 360.478 547.787C360.05 545.259 358.33 544.592 356.285 546.146C355.774 546.535 355.335 547.022 354.741 547.577C354.693 547.183 354.624 546.896 354.624 546.613C354.619 536.591 354.615 526.563 354.639 516.541C354.639 516.063 354.785 515.45 355.097 515.128C358.296 511.836 361.861 509.065 366.332 507.682C373.603 505.437 379.705 507.872 383.45 514.534C385.768 518.654 386.703 523.169 387.02 527.815C387.176 530.113 387.049 532.432 387.049 534.832L388.832 534.832C388.963 533.552 389.046 532.227 389.246 530.922C390.01 525.915 391.359 521.099 394.067 516.745C399.137 508.597 406.958 505.948 415.7 507.156C424.554 508.378 430.12 515.196 431.099 523.992C431.766 529.953 430.573 535.451 426.779 540.243C424.106 543.618 420.589 545.824 416.664 547.402C408.531 550.67 400.111 551.045 391.544 549.735C391.272 549.691 390.994 549.686 390.565 549.647L390.565 549.652ZM390.19 548.829C393.385 547.261 396.22 545.522 398.45 543.024C399.444 541.909 400.252 540.501 400.729 539.089C401.435 537.014 401.046 534.959 399.346 533.41C397.627 531.847 395.567 531.94 393.663 532.88C391.116 534.136 389.981 536.488 389.825 539.22C389.689 541.641 389.786 544.076 389.835 546.506C389.85 547.222 390.049 547.933 390.19 548.829Z" fill="#DBFF28"/>
<path d="M395.333 459.051C394.602 455.793 392.84 453.631 389.825 452.584C385.208 450.981 380.533 451.434 375.882 452.34C370.208 453.441 364.768 455.321 359.445 457.541C359.002 457.726 358.554 457.892 357.999 458.111C357.965 457.668 357.921 457.327 357.921 456.986C357.921 448.137 357.921 439.293 357.916 430.444C357.916 429.782 357.887 429.271 358.764 428.993C370.632 425.253 382.72 422.852 395.211 423.003C400.88 423.071 406.446 423.87 411.726 426.12C419.396 429.387 423.979 435.144 424.831 443.423C425.337 448.327 425.089 453.304 425.201 458.252C425.221 459.144 425.274 460.04 425.42 460.916C425.849 463.444 427.568 464.111 429.613 462.557C430.125 462.168 430.563 461.681 431.157 461.126C431.206 461.52 431.274 461.808 431.274 462.09C431.279 472.113 431.284 482.14 431.259 492.163C431.259 492.64 431.113 493.254 430.802 493.575C427.602 496.867 424.037 499.638 419.566 501.021C412.295 503.266 406.193 500.831 402.448 494.169C400.13 490.049 399.195 485.534 398.878 480.888C398.723 478.59 398.849 476.272 398.849 473.871H397.067C396.935 475.151 396.852 476.476 396.653 477.781C395.888 482.788 394.539 487.604 391.831 491.958C386.762 500.106 378.94 502.755 370.199 501.547C361.345 500.325 355.778 493.507 354.799 484.711C354.132 478.75 355.325 473.252 359.119 468.46C361.793 465.085 365.309 462.879 369.234 461.301C377.367 458.033 385.788 457.658 394.354 458.968C394.627 459.012 394.904 459.017 395.333 459.056V459.051ZM395.708 459.874C392.513 461.442 389.679 463.181 387.448 465.679C386.455 466.794 385.646 468.202 385.169 469.614C384.463 471.689 384.853 473.744 386.552 475.293C388.271 476.856 390.331 476.763 392.236 475.824C394.783 474.567 395.917 472.215 396.073 469.483C396.21 467.062 396.112 464.627 396.064 462.197C396.049 461.481 395.849 460.77 395.708 459.874Z" fill="#F8F7F3"/>
<path d="M396.313 634.221C399.571 633.49 401.734 631.727 402.781 628.713C404.383 624.096 403.93 619.421 403.024 614.77C401.924 609.096 400.044 603.656 397.823 598.333C397.638 597.89 397.472 597.442 397.253 596.887C397.696 596.853 398.037 596.809 398.378 596.809C407.227 596.809 416.071 596.809 424.92 596.804C425.582 596.804 426.094 596.775 426.371 597.651C430.111 609.52 432.512 621.607 432.361 634.099C432.293 639.768 431.495 645.334 429.245 650.613C425.977 658.284 420.22 662.866 411.941 663.719C407.037 664.225 402.06 663.977 397.112 664.089C396.221 664.108 395.325 664.162 394.448 664.308C391.92 664.737 391.253 666.456 392.807 668.501C393.196 669.012 393.683 669.451 394.239 670.045C393.844 670.094 393.557 670.162 393.274 670.162C383.252 670.167 373.224 670.171 363.202 670.147C362.724 670.147 362.111 670.001 361.789 669.689C358.497 666.49 355.726 662.925 354.343 658.454C352.098 651.183 354.533 645.081 361.195 641.336C365.315 639.018 369.83 638.083 374.476 637.766C376.775 637.61 379.093 637.737 381.494 637.737L381.494 635.954C380.213 635.823 378.888 635.74 377.583 635.54C372.577 634.776 367.76 633.427 363.406 630.719C355.259 625.649 352.609 617.828 353.817 609.086C355.039 600.232 361.857 594.666 370.653 593.687C376.614 593.02 382.112 594.213 386.904 598.007C390.279 600.681 392.485 604.197 394.063 608.122C397.331 616.255 397.706 624.675 396.396 633.242C396.352 633.515 396.347 633.792 396.308 634.221L396.313 634.221ZM395.49 634.596C393.922 631.401 392.183 628.567 389.685 626.336C388.57 625.343 387.162 624.534 385.75 624.057C383.675 623.351 381.62 623.74 380.072 625.44C378.508 627.159 378.601 629.219 379.541 631.123C380.797 633.67 383.149 634.805 385.882 634.961C388.302 635.097 390.737 635 393.167 634.951C393.883 634.937 394.594 634.737 395.49 634.596Z" fill="#F8F7F3"/>
<path d="M478.489 543.904C475.23 544.635 473.068 546.398 472.021 549.412C470.419 554.029 470.872 558.704 471.778 563.355C472.878 569.029 474.758 574.469 476.979 579.792C477.164 580.235 477.329 580.683 477.549 581.238C477.105 581.272 476.765 581.316 476.424 581.316C467.575 581.316 458.731 581.316 449.882 581.321C449.219 581.321 448.708 581.35 448.431 580.474C444.69 568.605 442.289 556.518 442.44 544.026C442.509 538.357 443.307 532.791 445.557 527.512C448.825 519.841 454.581 515.259 462.861 514.406C467.765 513.9 472.742 514.148 477.69 514.036C478.581 514.017 479.477 513.963 480.354 513.817C482.881 513.388 483.549 511.669 481.995 509.624C481.605 509.113 481.118 508.674 480.563 508.08C480.958 508.031 481.245 507.963 481.527 507.963C491.55 507.958 501.578 507.954 511.6 507.978C512.077 507.978 512.691 508.124 513.012 508.436C516.305 511.635 519.076 515.2 520.459 519.671C522.704 526.942 520.269 533.044 513.607 536.789C509.487 539.107 504.972 540.042 500.326 540.359C498.027 540.515 495.709 540.388 493.308 540.388L493.308 542.171C494.589 542.302 495.914 542.385 497.219 542.585C502.225 543.349 507.042 544.698 511.396 547.406C519.543 552.476 522.193 560.297 520.985 569.039C519.762 577.893 512.944 583.459 504.149 584.438C498.188 585.105 492.69 583.912 487.898 580.118C484.523 577.444 482.316 573.928 480.739 570.003C477.471 561.87 477.096 553.45 478.406 544.883C478.45 544.61 478.454 544.333 478.493 543.904L478.489 543.904ZM479.312 543.529C480.88 546.724 482.618 549.558 485.117 551.789C486.232 552.782 487.639 553.591 489.052 554.068C491.126 554.774 493.182 554.385 494.73 552.685C496.294 550.966 496.201 548.906 495.261 547.002C494.005 544.455 491.652 543.32 488.92 543.164C486.5 543.028 484.065 543.125 481.635 543.174C480.919 543.188 480.208 543.388 479.312 543.529Z" fill="#F8F7F3"/>
</g>
</svg>
