<svg width="255" height="63" viewBox="0 0 255 63" fill="none" xmlns="http://www.w3.org/2000/svg">
<path d="M10.5806 60.2067V39.27C10.7464 39.37 10.878 39.4305 10.9912 39.5148C15.6081 42.9551 20.7067 45.3609 26.3344 46.5954C28.0691 46.9771 29.8458 47.1956 31.6015 46.6244C32.8571 46.2164 33.4598 45.2925 33.3072 44.0185C33.215 43.2473 32.8176 42.5971 32.1411 42.2865C30.696 41.6232 29.2272 40.9888 27.719 40.4887C25.142 39.6332 22.5072 38.9541 19.9381 38.0828C17.9403 37.4064 16.0872 36.4035 14.4473 35.0374C11.7914 32.8237 10.3674 29.9861 10.0989 26.5616C9.72773 21.8131 10.7727 17.5436 14.3815 14.1638C16.6557 12.0344 19.3906 10.7867 22.3913 10.1444C28.0927 8.92309 33.7547 9.12051 39.2007 11.2789C44.71 13.4637 47.6633 17.6858 48.1687 23.5714C48.3029 25.1323 48.1898 26.7143 48.1898 28.3594C43.1622 29.107 38.1689 29.8492 33.3151 30.5705C32.8781 29.286 32.5728 28.0251 32.0305 26.8722C31.2988 25.3113 29.4799 24.4137 27.9085 24.6243C26.6687 24.7928 25.6764 25.3455 25.2473 26.5669C24.8104 27.8145 25.0894 28.9964 25.8975 30.0256C26.7135 31.0653 27.8558 31.6497 29.0772 32.0366C31.4146 32.7763 33.7783 33.437 36.1263 34.145C38.9191 34.99 41.6882 35.8639 44.1388 37.5459C47.4001 39.7885 49.0163 42.8972 49.2374 46.7902C49.3743 49.2224 49.161 51.6151 48.2819 53.9025C47.0263 57.177 44.652 59.3722 41.4829 60.7594C38.0188 62.2756 34.3337 62.6599 30.617 62.6862C23.897 62.7336 17.3059 61.6096 10.7464 60.2935C10.7069 60.2856 10.6727 60.2514 10.5832 60.1988L10.5806 60.2067Z" fill="#061C52"/>
<path d="M234.656 39.5468C234.035 37.1094 232.524 35.9038 229.855 35.6011C227.444 35.33 225.065 35.5669 222.761 36.2407C220.158 37.0015 217.61 37.9517 215.038 38.823C214.857 38.8835 214.678 38.9572 214.441 39.0441C214.428 38.7993 214.407 38.6124 214.407 38.4255C214.407 33.6454 214.407 28.8626 214.402 24.0825C214.402 23.7193 214.391 23.4534 214.865 23.3034C221.28 21.295 227.81 19.9815 234.564 20.0578C237.72 20.0947 240.824 20.5343 243.735 21.8293C247.641 23.564 250.079 26.5436 250.56 30.8052C250.876 33.6033 250.752 36.4513 250.837 39.2757C250.853 39.7758 250.847 40.2944 250.981 40.7682C251.339 42.0237 252.211 42.2659 253.211 41.4183C253.458 41.2104 253.645 40.9314 253.859 40.6839C253.914 40.7024 253.972 40.7234 254.027 40.7418C254.043 40.9393 254.072 41.1393 254.072 41.3367C254.072 46.688 254.08 52.0393 254.061 57.3906C254.061 57.6881 253.951 58.0619 253.753 58.2672C251.982 60.1045 249.973 61.5864 247.475 62.3155C243.74 63.4026 240.258 61.9049 238.444 58.4514C237.183 56.0482 236.678 53.466 236.525 50.7969C236.465 49.7309 236.515 48.6569 236.515 47.5461H235.62C235.438 48.8122 235.322 50.0783 235.064 51.3128C234.449 54.2688 233.375 57.0221 231.269 59.2806C228.939 61.7786 226.007 62.7314 222.677 62.6577C220.192 62.6024 217.921 61.9286 216.039 60.2203C213.925 58.304 212.922 55.8376 212.701 53.0659C212.24 47.2434 215.202 42.7555 220.677 40.6918C225.086 39.0309 229.597 38.7887 234.201 39.5126C234.327 39.5337 234.456 39.531 234.646 39.5442L234.656 39.5468ZM234.899 39.9759C232.943 40.9498 231.232 42.0343 229.94 43.6583C229.284 44.4849 228.931 45.4404 229.018 46.5301C229.137 47.991 230.34 49.0439 231.777 48.9123C233.385 48.7675 234.63 47.6909 234.92 46.0352C235.264 44.0584 235.133 42.0685 234.899 39.9732V39.9759Z" fill="#061C52"/>
<path d="M129.451 39.5498C129.056 37.7889 128.103 36.6202 126.474 36.0543C123.979 35.1883 121.452 35.433 118.938 35.9226C115.871 36.5175 112.931 37.5336 110.054 38.7339C109.815 38.8339 109.572 38.9234 109.272 39.0418C109.254 38.8023 109.23 38.618 109.23 38.4338C109.23 33.651 109.23 28.8709 109.228 24.0882C109.228 23.7302 109.212 23.4538 109.686 23.3038C116.1 21.2822 122.634 19.9845 129.385 20.0661C132.449 20.103 135.458 20.5347 138.311 21.7508C142.457 23.517 144.934 26.6283 145.394 31.103C145.668 33.7537 145.534 36.4438 145.594 39.1182C145.605 39.5999 145.634 40.0842 145.713 40.558C145.945 41.9241 146.874 42.2847 147.979 41.445C148.256 41.2345 148.493 40.9712 148.814 40.6712C148.84 40.8844 148.877 41.0397 148.877 41.1923C148.879 46.6095 148.882 52.0292 148.869 57.4463C148.869 57.7043 148.79 58.0359 148.622 58.2097C146.892 59.989 144.965 61.4868 142.549 62.2343C138.619 63.4478 135.321 62.1317 133.297 58.5308C132.044 56.3039 131.538 53.8639 131.367 51.3527C131.283 50.1103 131.351 48.8574 131.351 47.5597H130.388C130.317 48.252 130.272 48.9679 130.164 49.6734C129.751 52.3793 129.022 54.9826 127.558 57.3358C124.818 61.7395 120.591 63.1714 115.866 62.5186C111.081 61.8579 108.072 58.1728 107.543 53.419C107.182 50.1972 107.827 47.2254 109.878 44.6353C111.323 42.8112 113.223 41.6188 115.345 40.7659C119.741 38.9997 124.292 38.797 128.922 39.5051C129.069 39.5288 129.219 39.5314 129.451 39.5525V39.5498ZM129.654 39.9947C127.927 40.8423 126.395 41.782 125.189 43.1323C124.652 43.7351 124.216 44.4958 123.958 45.2591C123.576 46.3805 123.786 47.4912 124.705 48.3283C125.634 49.1732 126.748 49.1232 127.777 48.6152C129.154 47.9361 129.767 46.6647 129.851 45.1881C129.925 43.8798 129.872 42.5637 129.846 41.2503C129.838 40.8633 129.73 40.479 129.654 39.9947Z" fill="#061C52"/>
<path d="M187.358 21.2932C185.687 34.9544 181.909 48.055 178.885 61.3608C178.635 61.374 178.424 61.3924 178.214 61.3924C171.044 61.3924 163.873 61.3872 156.703 61.4056C156.158 61.4056 155.9 61.2792 155.761 60.7054C154.661 56.199 153.484 51.7111 152.405 47.1969C151.544 43.5986 150.704 39.9925 150.007 36.3626C149.222 32.2801 148.607 28.1633 147.925 24.0596C147.804 23.3252 147.738 22.5803 147.601 21.8486C147.522 21.4274 147.664 21.2747 148.064 21.2905C148.151 21.2932 148.241 21.2905 148.328 21.2905C153.766 21.2905 159.204 21.3011 164.642 21.2774C165.313 21.2747 165.513 21.4643 165.595 22.1434C166.006 25.5337 166.516 28.9134 166.943 32.3037C167.337 35.4335 167.714 38.5658 168.019 41.706C168.311 44.7147 168.506 47.7338 168.725 50.7504C168.754 51.132 168.859 51.2873 169.264 51.3005C169.706 51.3136 169.822 51.1373 169.849 50.7293C169.98 48.6077 170.085 46.4835 170.291 44.3672C170.615 41.0532 170.98 37.7419 171.383 34.4385C171.881 30.3717 172.441 26.3154 172.965 22.2513C173.089 21.2905 173.073 21.2905 174.026 21.2905C178.235 21.2905 182.446 21.2905 186.655 21.2905C186.847 21.2905 187.04 21.2905 187.353 21.2905L187.358 21.2932Z" fill="#061C52"/>
<path d="M91.7399 38.092C91.8715 35.9126 91.9215 33.6304 92.1636 31.3694C92.4769 28.4423 93.1981 25.6232 95.2354 23.3437C96.6147 21.8012 98.3967 20.8747 100.387 20.5167C102.25 20.1824 104.167 20.1192 106.059 19.9455C106.63 19.8929 106.854 20.0929 106.807 20.7457C106.404 26.276 106.046 31.8089 105.672 37.3419C105.591 38.5658 105.483 39.7898 105.42 41.0164C105.391 41.5508 105.212 41.6271 104.719 41.4508C102.479 40.6506 100.192 40.0188 97.7887 40.1899C96.8279 40.2584 95.8277 40.4821 94.9485 40.8638C93.4587 41.5113 92.9454 42.9195 93.8246 44.2751C94.5932 45.4596 94.6327 46.6599 94.6274 47.9497C94.6116 52.1586 94.6116 56.3702 94.6327 60.5791C94.6353 61.1898 94.4958 61.4109 93.8351 61.4083C88.5496 61.3819 83.2667 61.3819 77.9812 61.4083C77.3706 61.4109 77.2074 61.2424 77.21 60.637C77.2258 47.7865 77.2284 34.936 77.21 22.0881C77.21 21.4222 77.4127 21.2564 78.0576 21.2142C81.6874 20.9721 85.3146 20.6825 88.9418 20.3851C89.4235 20.3456 89.6525 20.4114 89.7052 20.9563C89.9131 23.0489 90.1684 25.1363 90.4027 27.2262C90.758 30.3823 91.1029 33.5409 91.4687 36.697C91.5293 37.2129 91.6688 37.7183 91.7451 38.0947L91.7399 38.092Z" fill="#061C52"/>
<path d="M74.3852 43.3539V48.2577C74.3852 51.24 74.3773 54.2223 74.3957 57.2046C74.3957 57.6363 74.2615 57.9285 73.9509 58.2233C71.2739 60.7502 68.1811 62.4138 64.4749 62.7771C60.5108 63.164 56.8204 61.3557 54.8225 57.8153C53.2537 55.0357 52.822 51.9981 52.8115 48.8737C52.7984 44.1383 52.8089 39.4003 52.8089 34.6649V33.8253H50.1319C50.1161 33.5304 50.0924 33.2988 50.0924 33.0672C50.0898 31.1378 50.1135 29.2083 50.0766 27.2789C50.0661 26.7104 50.2319 26.4366 50.7768 26.226C53.3985 25.2232 55.8044 23.8597 57.8549 21.9066C60.6766 19.2191 62.3112 15.8735 63.3141 12.1726C63.6615 10.8854 63.651 10.8828 65.0092 10.8828C66.2332 10.8828 67.4546 10.8828 68.7523 10.8828V21.2696H74.2641V33.8595H68.8365C68.8075 34.0437 68.7733 34.149 68.7733 34.2543C68.7865 36.6654 68.7812 39.0765 68.8391 41.4876C68.8549 42.0852 69.0234 42.7011 69.2313 43.2697C69.7209 44.6042 70.8843 45.1175 72.1952 44.5568C72.9296 44.2436 73.6061 43.7908 74.3852 43.3565V43.3539Z" fill="#061C52"/>
<path d="M189.554 21.3112C195.371 22.7168 201.099 22.7089 206.918 21.3139C206.918 21.6113 206.918 21.864 206.918 22.1141C206.918 27.7707 206.911 33.4273 206.929 39.084C206.929 39.7105 207.013 40.3553 207.166 40.9634C207.39 41.8531 207.985 42.1321 208.811 41.7399C209.277 41.5188 209.674 41.1582 210.164 40.8186C210.18 40.9871 210.209 41.1634 210.209 41.3372C210.209 46.7095 210.214 52.0793 210.201 57.4516C210.201 57.7122 210.117 58.0254 209.959 58.2229C206.895 62.0659 201.591 63.7216 197.013 62.1686C193.634 61.0236 191.588 58.5308 190.443 55.2221C189.775 53.2901 189.556 51.2975 189.556 49.2707C189.556 40.129 189.556 30.9873 189.556 21.8429C189.556 21.6929 189.556 21.5402 189.556 21.3086L189.554 21.3112Z" fill="#061C52"/>
<path d="M198.211 19.4262C193.144 19.4262 189.008 15.2963 189.006 10.2319C189.003 5.128 193.152 0.9375 198.211 0.9375C203.267 0.9375 207.424 5.13063 207.424 10.2319C207.424 15.2884 203.278 19.4236 198.211 19.4262Z" fill="#061C52"/>
</svg>
